<?xml version="1.0" standalone="no"?>
<!DOCTYPE svg PUBLIC "-//W3C//DTD SVG 20010904//EN"
 "http://www.w3.org/TR/2001/REC-SVG-20010904/DTD/svg10.dtd">
<svg version="1.0" xmlns="http://www.w3.org/2000/svg"
 width="400.000000pt" height="400.000000pt" viewBox="0 0 400.000000 400.000000"
 preserveAspectRatio="xMidYMid meet">
<metadata>
Created by potrace 1.11, written by Peter Selinger 2001-2013
</metadata>
<g transform="translate(0.000000,400.000000) scale(0.100000,-0.100000)"
fill="#000000" stroke="none">
<path d="M1044 3978 c0 -18 1 -18 13 -2 7 10 13 13 13 6 0 -6 -10 -18 -22 -26
-15 -11 -18 -16 -8 -16 13 0 13 -2 0 -11 -11 -8 -12 -12 -3 -16 10 -3 9 -8 -2
-19 -16 -16 -9 -47 9 -38 6 3 2 -2 -8 -10 -20 -16 -20 -16 0 -16 15 0 16 -2 5
-9 -10 -6 -12 -19 -8 -40 5 -24 4 -30 -6 -24 -6 4 -4 -6 7 -21 10 -16 14 -26
8 -22 -5 3 -12 -1 -16 -9 -3 -10 1 -15 12 -16 11 0 12 -2 4 -6 -10 -4 -10 -8
0 -21 8 -10 9 -13 1 -9 -18 11 -21 -16 -5 -48 15 -29 14 -29 -4 -15 -18 15
-18 14 -1 -12 20 -32 22 -41 5 -33 -7 4 -5 0 5 -8 10 -9 18 -18 17 -21 -1 -4
0 -12 3 -19 3 -9 7 -9 19 1 13 10 18 9 29 -5 13 -17 13 -17 -6 -3 -19 14 -19
14 -6 -3 13 -16 17 -17 25 -5 6 8 17 13 23 11 7 -3 16 2 19 11 3 9 10 14 14
11 5 -3 12 0 16 6 4 7 3 9 -4 5 -6 -3 -13 -2 -17 4 -3 5 -1 10 4 10 13 0 10
22 -4 32 -6 5 -6 8 2 8 7 0 17 -8 22 -17 14 -25 14 -7 -1 20 -10 19 -9 20 4
10 12 -10 15 -10 15 2 0 14 -17 20 -41 16 -5 -1 -4 5 4 13 14 18 25 22 15 6
-3 -5 0 -7 9 -4 12 5 13 9 3 19 -7 7 -16 10 -22 7 -5 -3 -2 4 8 15 18 21 18
21 0 26 -17 4 -17 5 0 6 10 0 15 6 12 11 -4 6 -11 8 -16 5 -5 -4 -9 -2 -9 3 0
6 7 13 16 16 10 4 13 2 8 -7 -5 -8 -2 -7 9 2 17 13 24 26 10 18 -5 -3 -17 -1
-28 4 l-20 8 20 0 c14 1 16 4 7 9 -7 5 -14 18 -17 30 -3 15 0 19 12 15 10 -4
11 -8 3 -13 -8 -5 -7 -9 3 -13 12 -4 15 0 12 15 -3 12 -9 24 -14 28 -6 3 -9
15 -8 27 0 12 4 20 8 17 4 -2 11 0 14 6 4 6 3 10 -2 9 -24 -4 -33 3 -29 24 2
13 10 21 20 21 9 -1 13 2 10 7 -3 5 -14 9 -25 9 -11 0 -17 5 -14 10 3 6 2 10
-4 10 -6 0 -8 6 -5 13 4 10 -10 14 -58 14 -56 -1 -64 -3 -64 -19z"/>
<path d="M1505 3991 c3 -6 11 -8 17 -5 7 4 8 2 4 -4 -4 -6 -14 -8 -23 -5 -11
4 -14 3 -9 -5 5 -8 2 -10 -8 -6 -9 3 -16 1 -16 -5 0 -6 5 -11 11 -11 8 0 8 -4
-1 -15 -6 -8 -9 -18 -6 -24 4 -5 -2 -12 -11 -14 -16 -4 -16 -5 -1 -6 14 -1 15
-6 7 -33 -11 -40 -11 -40 -1 -34 4 2 8 -9 7 -25 0 -19 -5 -29 -15 -29 -13 -1
-13 -2 0 -10 12 -6 15 -22 12 -62 -1 -29 -2 -60 -2 -68 0 -8 1 -27 1 -42 0
-16 5 -28 12 -28 7 0 6 -4 -3 -10 -12 -7 -12 -10 -1 -10 8 0 11 -6 7 -16 -4
-12 -2 -15 9 -10 9 3 15 0 15 -8 0 -16 25 -29 55 -29 11 0 19 5 17 12 -2 9 4
12 18 8 21 -5 21 -5 3 15 -18 21 -18 21 7 5 l26 -17 -4 38 c-2 28 -1 33 7 22
10 -13 11 -13 12 0 0 8 2 27 3 42 2 15 -1 25 -5 22 -4 -2 -6 -13 -4 -24 2 -12
0 -18 -5 -15 -12 7 -4 47 12 57 9 5 8 8 -5 8 -10 0 -15 5 -12 10 4 6 10 8 13
6 13 -8 6 42 -8 59 -11 13 -10 15 2 10 11 -5 13 4 11 42 -4 68 -4 65 0 100 2
25 0 30 -10 22 -9 -8 -12 -5 -11 13 2 39 -2 49 -14 42 -7 -4 -8 -3 -4 5 4 6
12 8 18 5 6 -4 8 -2 4 4 -3 5 0 13 6 16 7 3 2 3 -11 0 -13 -3 -21 -2 -18 3 3
4 -22 10 -55 11 -41 2 -58 0 -53 -7z m45 -501 c0 -5 -2 -10 -4 -10 -3 0 -8 5
-11 10 -3 6 -1 10 4 10 6 0 11 -4 11 -10z"/>
<path d="M1926 3989 c3 -5 10 -6 16 -3 7 5 8 2 4 -5 -5 -7 -13 -10 -20 -8 -7
3 -12 -5 -12 -19 0 -13 5 -24 11 -24 7 0 6 -3 -1 -8 -13 -9 -26 -54 -13 -46
11 6 11 6 0 -34 -6 -20 -6 -30 0 -27 5 4 9 5 9 3 0 -2 -4 -18 -9 -36 -6 -20
-6 -30 0 -27 5 4 9 5 9 3 0 -2 -4 -18 -9 -36 -6 -20 -6 -30 0 -27 5 4 9 5 9 3
0 -2 -4 -18 -9 -36 -6 -18 -6 -30 -2 -28 4 3 7 -17 5 -44 -1 -28 2 -53 7 -56
5 -3 9 -10 9 -15 0 -6 -4 -7 -10 -4 -15 9 -12 -1 3 -14 11 -8 14 -7 14 7 0 9
-4 23 -10 30 -6 8 -6 12 2 12 6 0 14 -13 18 -30 3 -17 12 -30 20 -30 8 0 11
-5 7 -11 -4 -7 1 -7 16 1 12 7 33 10 46 7 15 -3 21 0 16 7 -3 6 -8 20 -9 31
-3 16 -1 17 7 5 5 -8 10 -11 10 -6 0 5 7 3 16 -4 12 -11 15 -11 12 1 -2 8 -7
17 -13 21 -6 5 -5 8 3 8 7 0 10 5 7 10 -3 6 -1 10 5 10 8 0 8 6 0 20 -7 14 -7
20 0 20 5 0 10 5 10 11 0 5 -3 8 -7 6 -5 -3 -8 6 -8 19 0 13 3 24 7 24 4 0 3
14 -2 30 -5 18 -5 30 1 30 5 0 9 5 9 11 0 5 -3 8 -7 6 -5 -3 -8 6 -8 19 0 13
2 24 5 24 3 0 4 32 2 70 -2 39 -8 68 -13 65 -5 -4 -6 1 -3 9 3 9 11 13 18 9 7
-4 7 -1 -1 9 -7 8 -9 19 -5 23 4 5 1 5 -6 1 -7 -4 -9 -12 -6 -18 4 -6 2 -8 -4
-5 -5 4 -8 15 -5 25 4 17 -3 19 -71 19 -45 1 -74 -3 -70 -8z"/>
<path d="M2363 3974 c-16 -18 -18 -24 -6 -28 9 -4 11 -2 7 6 -4 6 -3 8 4 5 5
-4 8 -16 5 -28 -4 -16 -8 -17 -14 -7 -5 7 -9 8 -9 3 0 -6 6 -17 13 -24 10 -11
9 -13 -3 -9 -15 5 -16 -2 -11 -55 1 -5 7 -5 14 -1 6 4 5 -1 -4 -12 -19 -22
-19 -82 0 -94 9 -5 8 -9 -4 -14 -14 -5 -15 -9 -6 -20 8 -10 9 -16 1 -21 -13
-8 -5 -58 10 -63 6 -2 3 -10 -7 -18 -17 -13 -17 -14 2 -8 16 6 18 5 8 -7 -7
-7 -13 -18 -13 -23 0 -6 5 -4 10 4 8 12 10 9 10 -12 0 -16 5 -28 11 -28 5 0 8
-4 5 -9 -3 -4 1 -17 10 -27 14 -18 15 -18 4 4 -6 12 -7 22 -1 22 5 0 11 -7 15
-15 4 -12 11 -13 31 -5 19 7 24 7 19 -2 -5 -8 -2 -9 10 -5 10 4 20 7 22 7 2 0
4 5 4 11 0 5 -4 8 -9 4 -5 -3 -12 -1 -15 4 -7 10 13 9 30 -1 6 -4 11 -2 12 5
0 7 3 24 5 40 3 15 0 27 -7 27 -8 0 -8 2 0 8 6 4 10 15 8 25 -1 9 3 17 9 17 8
0 9 3 1 8 -6 4 -10 21 -10 37 0 17 4 33 10 37 8 6 8 8 0 8 -6 0 -11 16 -11 35
0 19 5 35 11 35 8 0 8 3 1 8 -15 10 -15 72 -1 72 6 0 4 5 -4 10 -8 5 -11 10
-6 10 5 0 3 6 -3 14 -8 10 -9 16 -2 21 7 4 1 17 -14 33 -14 15 -25 30 -25 33
0 4 -22 6 -48 6 -38 0 -53 -5 -69 -23z m67 11 c0 -2 -13 -8 -29 -13 -22 -8
-29 -8 -25 1 3 10 54 21 54 12z m-56 -123 c3 -5 -1 -9 -9 -9 -8 0 -12 4 -9 9
3 4 7 8 9 8 2 0 6 -4 9 -8z m-7 -67 c0 -8 -4 -12 -9 -9 -4 3 -8 9 -8 15 0 5 4
9 8 9 5 0 9 -7 9 -15z m3 -29 c0 -3 -4 -8 -10 -11 -5 -3 -10 -1 -10 4 0 6 5
11 10 11 6 0 10 -2 10 -4z m0 -100 c0 -3 -4 -8 -10 -11 -5 -3 -10 -1 -10 4 0
6 5 11 10 11 6 0 10 -2 10 -4z m145 -126 c-3 -5 -11 -10 -16 -10 -6 0 -7 5 -4
10 3 6 11 10 16 10 6 0 7 -4 4 -10z"/>
<path d="M2490 3990 c0 -4 10 -15 22 -26 17 -14 20 -15 9 -2 -7 9 -10 21 -7
26 3 5 -1 9 -9 9 -8 0 -15 -3 -15 -7z"/>
<path d="M2825 3990 c-3 -5 0 -12 6 -16 8 -5 9 -3 4 6 -6 9 -4 11 4 6 12 -8 7
-20 -10 -22 -22 -3 -23 -5 -9 -14 13 -8 13 -10 -1 -10 -25 0 -41 -24 -27 -38
9 -9 9 -12 -2 -12 -11 -1 -9 -5 5 -17 18 -14 18 -15 1 -9 -14 5 -17 2 -12 -10
3 -8 6 -25 6 -35 0 -13 4 -18 12 -13 7 4 8 3 4 -4 -4 -7 -15 -12 -24 -12 -13
0 -14 -2 -4 -9 14 -8 13 -32 -1 -42 -5 -3 -1 -9 8 -12 10 -5 14 -3 9 5 -4 7
-3 8 5 4 7 -5 9 -12 3 -19 -10 -14 -10 -47 1 -64 4 -6 3 -14 -2 -18 -5 -3 -8
-14 -6 -25 3 -13 -2 -20 -13 -21 -12 0 -9 -4 8 -12 14 -6 26 -12 28 -13 2 -1
-2 -12 -8 -24 -7 -12 -8 -20 -3 -17 4 2 17 1 28 -4 17 -6 17 -8 3 -8 -10 -1
-18 -6 -18 -12 0 -5 5 -7 11 -4 5 4 18 0 28 -9 16 -14 21 -15 32 -4 8 7 24 13
37 12 13 -1 21 4 19 10 -2 6 -13 10 -23 8 -15 -2 -16 -1 -5 7 8 5 20 7 28 4 9
-4 11 0 6 13 -5 13 -3 15 8 9 12 -7 12 -6 1 7 -10 13 -10 18 -1 24 8 5 9 3 4
-7 -7 -11 -6 -12 7 -2 8 7 18 11 21 8 4 -3 4 -2 1 3 -3 4 -11 7 -17 7 -7 0
-12 11 -12 25 0 14 -4 30 -8 37 -4 6 -2 15 4 18 5 4 8 13 5 20 -5 15 17 38 27
28 4 -3 7 -4 7 -1 0 3 -7 11 -16 18 -12 11 -15 11 -12 0 2 -7 -4 -15 -12 -17
-12 -4 -12 -3 -2 5 19 13 19 17 4 35 -7 8 -9 18 -5 20 5 3 8 25 8 49 -1 24 3
54 7 67 8 22 7 23 -8 10 -16 -13 -16 -12 -5 10 7 13 9 26 5 30 -5 3 -16 15
-24 25 -11 15 -12 18 -1 12 9 -6 12 -5 9 5 -5 15 -114 23 -123 9z m-11 -68 c3
-5 -1 -9 -9 -9 -8 0 -12 4 -9 9 3 4 7 8 9 8 2 0 6 -4 9 -8z m76 -427 c0 -12
-19 -12 -23 0 -4 9 -1 12 9 8 7 -3 14 -7 14 -8z"/>
<path d="M1643 3935 c0 -8 4 -12 9 -9 4 3 8 9 8 15 0 5 -4 9 -8 9 -5 0 -9 -7
-9 -15z"/>
<path d="M1198 3903 c7 -3 16 -2 19 1 4 3 -2 6 -13 5 -11 0 -14 -3 -6 -6z"/>
<path d="M1209 3853 c-13 -16 -12 -17 4 -4 9 7 17 15 17 17 0 8 -8 3 -21 -13z"/>
<path d="M2969 3773 c-8 -9 -9 -14 -2 -10 6 4 13 1 16 -5 3 -7 4 -3 4 10 -1
26 -1 26 -18 5z"/>
<path d="M1455 3741 c-3 -5 -2 -12 3 -15 5 -3 9 1 9 9 0 17 -3 19 -12 6z"/>
<path d="M1440 3686 c0 -2 8 -10 18 -17 15 -13 16 -12 3 4 -13 16 -21 21 -21
13z"/>
<path d="M1205 3660 c3 -5 8 -10 11 -10 2 0 4 5 4 10 0 6 -5 10 -11 10 -5 0
-7 -4 -4 -10z"/>
<path d="M2966 3661 c-4 -5 -2 -12 3 -15 5 -4 12 -2 15 3 4 5 2 12 -3 15 -5 4
-12 2 -15 -3z"/>
<path d="M2778 3653 c6 -2 9 -10 6 -15 -4 -7 -2 -8 5 -4 13 9 5 26 -12 25 -9
0 -8 -2 1 -6z"/>
<path d="M1456 3593 c-6 -14 -5 -15 5 -6 7 7 10 15 7 18 -3 3 -9 -2 -12 -12z"/>
<path d="M2790 3549 c0 -5 5 -7 10 -4 6 3 10 8 10 11 0 2 -4 4 -10 4 -5 0 -10
-5 -10 -11z"/>
<path d="M2055 3510 c-3 -5 -1 -10 4 -10 6 0 11 5 11 10 0 6 -2 10 -4 10 -3 0
-8 -4 -11 -10z"/>
<path d="M755 3390 c-4 -6 -10 -8 -15 -5 -5 3 -11 1 -14 -4 -8 -13 22 -7 36 7
7 7 9 12 6 12 -4 0 -10 -5 -13 -10z"/>
<path d="M875 3391 c-3 -6 -15 -8 -27 -6 -11 3 -18 1 -14 -2 12 -13 35 -11 47
3 6 8 9 14 6 14 -3 0 -8 -4 -12 -9z"/>
<path d="M995 3391 c-3 -6 -15 -8 -27 -6 -11 3 -18 1 -14 -2 12 -13 35 -11 47
3 6 8 9 14 6 14 -3 0 -8 -4 -12 -9z"/>
<path d="M1115 3391 c-3 -6 -15 -8 -27 -6 -11 3 -18 1 -14 -2 12 -13 35 -11
47 3 6 8 9 14 6 14 -3 0 -8 -4 -12 -9z"/>
<path d="M1956 3393 c-4 -5 -21 -8 -36 -9 -16 0 -39 -9 -51 -20 -12 -10 -19
-13 -14 -5 6 11 4 13 -9 8 -9 -4 -15 -3 -11 2 11 20 -21 17 -44 -3 -13 -11
-21 -15 -16 -7 6 11 4 13 -9 8 -9 -4 -15 -3 -11 2 11 20 -21 17 -44 -3 -13
-11 -21 -15 -16 -7 6 11 4 13 -9 8 -9 -4 -15 -3 -11 2 11 20 -21 17 -44 -3
-13 -11 -21 -15 -16 -7 6 11 4 13 -9 8 -9 -4 -15 -3 -11 2 11 20 -21 17 -44
-3 -13 -11 -21 -15 -16 -7 6 11 4 13 -9 8 -9 -4 -15 -3 -11 2 11 20 -21 17
-44 -3 -13 -11 -21 -15 -16 -7 6 11 4 13 -9 8 -9 -4 -15 -3 -11 2 11 20 -21
17 -44 -3 -13 -11 -21 -15 -16 -7 6 11 4 13 -9 8 -9 -4 -15 -3 -11 2 11 20
-21 17 -44 -3 -13 -11 -21 -15 -16 -7 6 11 4 13 -7 8 -9 -3 -21 0 -27 6 -9 9
-11 7 -6 -8 4 -12 4 -15 -2 -8 -9 13 -30 12 -52 -1 -10 -6 -12 -5 -7 2 4 7 1
12 -9 12 -9 0 -14 4 -11 8 3 5 -1 9 -9 9 -18 0 -19 -9 -2 -27 6 -8 1 -6 -12 5
-23 19 -24 19 -17 1 5 -14 3 -16 -6 -9 -15 11 -28 11 -47 -1 -10 -6 -12 -5 -7
2 4 7 1 12 -9 12 -9 0 -14 4 -11 8 3 5 -1 9 -9 9 -18 0 -19 -9 -2 -27 6 -8 1
-6 -12 5 -23 19 -24 19 -17 1 6 -17 5 -17 -10 -5 -21 17 -17 17 -39 -1 -11 -9
-16 -10 -11 -2 4 7 1 12 -9 12 -9 0 -14 4 -11 8 3 5 -1 9 -9 9 -18 0 -19 -9
-2 -27 6 -8 1 -6 -12 5 -23 19 -24 19 -17 1 5 -14 4 -16 -6 -8 -22 17 -24 18
-43 2 -11 -9 -16 -10 -11 -2 4 7 1 12 -9 12 -9 0 -14 4 -11 8 3 5 -1 9 -9 9
-18 0 -19 -9 -3 -27 7 -8 2 -6 -11 5 -22 18 -24 18 -18 2 5 -13 3 -16 -6 -10
-6 4 -20 8 -29 9 -10 1 -19 2 -20 4 -10 7 -37 6 -32 -1 3 -5 9 -7 13 -5 4 3 8
-1 8 -9 0 -10 -4 -12 -12 -5 -9 7 -16 6 -25 -5 -7 -8 -18 -15 -26 -15 -7 0
-16 -5 -20 -12 -4 -6 -3 -8 4 -4 6 3 13 2 17 -4 3 -5 2 -10 -4 -10 -6 0 -15
-10 -22 -21 -8 -15 -8 -19 0 -15 6 4 11 1 11 -8 0 -8 6 -17 13 -19 9 -4 8 -6
-2 -6 -11 -1 -11 -4 -1 -16 10 -12 9 -16 -4 -21 -13 -5 -14 -9 -5 -20 9 -12 9
-13 -3 -9 -9 4 -15 0 -15 -9 0 -8 4 -13 9 -10 4 3 8 -1 8 -10 0 -8 6 -17 13
-19 9 -4 8 -6 -2 -6 -11 -1 -11 -4 -1 -16 10 -12 9 -16 -4 -21 -13 -5 -14 -9
-5 -20 9 -12 9 -13 -3 -9 -9 4 -15 0 -15 -9 0 -8 4 -13 9 -10 4 3 8 -1 8 -10
0 -8 6 -17 13 -19 9 -4 8 -6 -2 -6 -11 -1 -11 -4 -1 -16 10 -12 9 -16 -4 -21
-13 -5 -14 -9 -5 -20 9 -12 9 -13 -3 -9 -9 4 -15 0 -15 -9 0 -8 4 -13 9 -10 4
3 8 -1 8 -10 0 -8 6 -17 13 -19 9 -4 8 -6 -2 -6 -11 -1 -11 -4 -1 -16 10 -12
9 -16 -4 -21 -13 -5 -14 -9 -5 -20 9 -12 9 -13 -3 -9 -9 4 -15 0 -15 -9 0 -8
4 -13 9 -10 4 3 8 -1 8 -10 0 -8 6 -17 13 -19 9 -4 8 -6 -2 -6 -11 -1 -11 -4
-1 -16 10 -12 9 -16 -4 -21 -13 -5 -14 -9 -5 -20 9 -12 9 -13 -3 -9 -9 4 -15
0 -15 -9 0 -8 4 -13 9 -10 4 3 8 -1 8 -10 0 -8 6 -17 13 -19 9 -4 8 -6 -2 -6
-11 -1 -11 -4 -1 -16 10 -12 9 -16 -4 -21 -13 -5 -14 -9 -5 -20 9 -12 9 -13
-3 -9 -9 4 -15 0 -15 -9 0 -8 4 -13 9 -10 4 3 8 -1 8 -10 0 -8 6 -17 13 -19 9
-4 8 -6 -2 -6 -11 -1 -11 -4 -1 -16 10 -12 9 -16 -4 -21 -13 -5 -14 -9 -5 -20
9 -12 9 -13 -3 -9 -9 4 -15 0 -15 -9 0 -8 4 -13 9 -10 4 3 8 -1 8 -10 0 -8 6
-17 13 -19 9 -4 8 -6 -2 -6 -11 -1 -11 -4 -1 -16 10 -12 9 -16 -4 -21 -13 -5
-14 -9 -5 -20 9 -12 9 -13 -3 -9 -9 4 -15 0 -15 -9 0 -8 4 -13 9 -10 4 3 8 -1
8 -10 0 -8 6 -17 13 -19 9 -4 8 -6 -2 -6 -11 -1 -11 -4 -1 -16 10 -12 9 -16
-4 -21 -13 -5 -14 -9 -5 -20 9 -12 9 -13 -3 -9 -9 4 -15 0 -15 -9 0 -8 4 -13
9 -10 4 3 8 -2 8 -10 0 -9 6 -16 13 -16 9 0 8 -3 -2 -9 -9 -6 -10 -10 -2 -16
9 -5 9 -10 1 -20 -8 -10 -8 -19 -1 -33 8 -15 7 -23 -4 -32 -12 -10 -13 -7 -9
14 2 14 1 26 -4 26 -4 0 -8 -16 -8 -35 0 -30 3 -34 21 -29 11 3 16 2 10 -3
-16 -13 -19 -46 -3 -37 7 4 3 -4 -8 -17 -20 -23 -23 -55 -3 -44 5 4 6 -2 2
-11 -5 -13 -3 -15 8 -9 8 5 4 -3 -7 -16 -20 -23 -23 -55 -3 -44 5 4 6 -2 2
-11 -5 -13 -3 -15 8 -9 8 5 4 -3 -7 -16 -20 -23 -23 -55 -3 -44 5 4 6 -2 2
-11 -5 -13 -3 -15 8 -9 8 5 4 -3 -7 -16 -20 -23 -23 -55 -3 -44 5 4 6 -2 2
-11 -5 -13 -3 -15 8 -9 8 5 4 -3 -7 -16 -20 -23 -23 -55 -3 -44 5 4 6 -2 2
-11 -5 -13 -3 -15 8 -9 8 5 4 -3 -7 -16 -20 -23 -23 -55 -3 -44 5 4 6 -2 2
-11 -5 -13 -3 -15 8 -9 8 5 5 -2 -5 -14 -11 -12 -20 -34 -20 -49 -1 -15 -5
-34 -10 -42 -9 -13 -8 -13 7 -1 9 7 15 16 13 20 -3 4 0 13 5 21 7 11 8 8 5
-12 -3 -15 1 -29 7 -32 7 -2 3 -5 -8 -6 l-20 -1 20 -15 c20 -16 20 -16 -1 -10
-14 4 -21 2 -21 -8 0 -9 4 -13 8 -11 3 3 9 -4 12 -15 8 -30 8 -30 0 -30 -5 0
-8 4 -8 9 0 5 -3 12 -7 16 -3 4 -5 -1 -4 -12 2 -10 -2 -25 -8 -33 -9 -13 -8
-13 4 -3 10 8 21 9 30 3 12 -8 11 -10 -5 -10 l-20 -1 20 -15 c20 -16 20 -16
-1 -10 -14 4 -21 2 -21 -8 0 -9 4 -13 8 -11 3 3 9 -4 12 -15 8 -30 8 -30 0
-30 -5 0 -8 4 -8 9 0 5 -3 12 -7 16 -3 4 -5 -1 -4 -12 2 -10 -2 -25 -8 -33 -9
-13 -8 -13 4 -3 10 8 21 9 30 3 12 -8 11 -10 -5 -10 l-20 -1 20 -15 c20 -16
20 -16 -1 -10 -14 4 -21 2 -21 -8 0 -9 4 -13 8 -11 3 3 9 -4 12 -15 8 -30 8
-30 0 -30 -5 0 -8 4 -8 9 0 5 -3 12 -7 16 -3 4 -5 -1 -4 -12 2 -10 -2 -25 -8
-33 -9 -13 -8 -13 4 -3 10 8 21 9 30 3 12 -8 11 -10 -5 -10 l-20 -1 20 -15
c20 -16 20 -16 -1 -10 -14 4 -21 2 -21 -8 0 -9 4 -13 8 -11 3 3 9 -4 12 -15 8
-30 8 -30 0 -30 -5 0 -8 4 -8 9 0 5 -3 12 -7 16 -3 4 -5 -1 -4 -12 2 -10 -2
-25 -8 -33 -9 -13 -8 -13 4 -3 10 8 21 9 30 3 12 -8 11 -10 -5 -10 l-20 -1 20
-15 c20 -16 20 -16 -1 -10 -14 4 -21 2 -21 -8 0 -9 3 -13 6 -11 4 2 11 -8 18
-21 6 -14 7 -26 2 -30 -5 -3 -9 -10 -9 -15 0 -6 5 -7 12 -3 7 4 8 3 4 -5 -4
-6 -11 -9 -16 -6 -5 3 -11 1 -14 -4 -4 -5 4 -13 16 -17 l21 -6 -24 -15 c-13
-8 -16 -12 -7 -9 10 3 20 0 24 -7 4 -7 4 -9 0 -5 -10 8 -36 -14 -29 -24 8 -13
25 -9 17 4 -4 8 -2 8 7 -1 11 -10 11 -15 2 -18 -10 -4 -10 -7 0 -18 7 -7 16
-10 21 -7 5 3 7 -2 3 -10 -4 -13 1 -15 24 -14 17 1 33 -2 36 -7 3 -6 2 -7 -4
-4 -5 3 -10 0 -10 -8 0 -9 4 -11 11 -6 6 5 22 7 36 6 14 -1 34 6 46 16 16 15
21 16 21 5 0 -8 -3 -13 -7 -11 -4 2 -7 -2 -7 -10 0 -12 3 -13 16 -3 35 28 58
37 58 22 0 -7 -3 -11 -7 -9 -3 2 -12 0 -19 -4 -7 -4 22 -7 64 -6 41 1 79 6 83
10 4 5 -1 5 -10 2 -12 -4 -15 -2 -11 9 4 10 9 11 17 4 9 -6 16 -6 23 1 8 8 13
7 18 -2 5 -7 4 -10 -3 -5 -6 4 -16 -4 -23 -16 -11 -21 -11 -22 4 -9 9 7 23 11
30 8 8 -3 20 -1 28 5 11 8 11 9 -3 4 -12 -3 -15 -1 -11 10 4 10 9 11 17 4 9
-6 16 -6 24 2 9 9 15 9 23 1 8 -8 7 -13 -2 -18 -8 -5 -10 -4 -5 3 4 7 3 12 -3
12 -6 0 -15 -10 -22 -21 -9 -17 -8 -20 3 -13 7 5 18 9 23 10 6 1 19 6 29 10
15 6 17 4 11 -6 -5 -9 -4 -11 4 -6 6 4 20 2 29 -5 13 -10 12 -8 -2 9 -11 12
-16 25 -13 29 4 3 7 1 7 -6 0 -8 8 -10 23 -6 15 4 18 3 8 -3 -8 -6 -9 -12 -3
-16 6 -3 13 -2 17 4 3 5 17 10 31 10 14 0 23 -4 20 -8 -6 -10 55 -9 72 1 7 5
10 12 7 17 -3 4 6 3 19 -3 13 -7 22 -16 19 -21 -4 -5 -1 -6 6 -2 6 4 19 2 28
-6 14 -11 16 -11 8 1 -6 11 -4 13 7 9 8 -4 21 -2 29 4 11 8 11 9 -3 4 -12 -3
-15 -1 -11 10 4 10 9 11 17 4 9 -6 16 -6 23 1 8 8 13 7 18 -2 5 -7 4 -10 -3
-5 -6 4 -16 -4 -23 -16 -11 -21 -11 -22 4 -9 9 7 23 11 32 8 8 -4 17 -1 21 5
4 7 3 8 -4 4 -8 -5 -10 -1 -5 9 4 13 8 14 14 4 6 -10 10 -10 23 0 11 9 20 10
36 1 16 -9 25 -8 38 2 11 9 14 10 8 1 -4 -8 -1 -13 9 -13 9 0 14 -4 11 -8 -10
-16 62 -6 81 11 16 14 20 14 20 2 0 -8 -3 -12 -7 -10 -4 2 -7 -2 -7 -10 0 -12
3 -13 16 -3 35 28 58 37 58 22 0 -7 -3 -11 -7 -9 -3 2 -11 0 -18 -4 -7 -4 17
-7 52 -7 55 1 63 3 53 15 -9 12 -9 13 1 7 7 -4 19 -3 26 3 9 8 13 7 13 -4 0
-8 -4 -12 -9 -9 -4 3 -8 0 -8 -6 0 -7 7 -9 16 -6 9 4 24 1 33 -6 10 -8 8 -3
-4 11 -11 14 -14 21 -7 17 7 -4 19 -2 27 4 11 9 15 9 15 1 0 -6 -5 -11 -11
-11 -5 0 -7 -5 -3 -11 4 -8 9 -8 17 0 13 13 61 15 53 3 -7 -12 62 -8 74 4 12
12 53 7 46 -5 -2 -3 9 -6 24 -6 16 -1 26 3 24 7 -3 5 -9 6 -14 3 -5 -3 -11 -1
-15 4 -3 6 4 8 16 6 13 -3 28 0 34 5 8 7 12 5 12 -5 0 -8 -4 -12 -9 -9 -4 3
-8 0 -8 -6 0 -7 7 -9 16 -6 9 4 24 1 33 -6 10 -8 8 -3 -4 11 -11 14 -14 21 -7
17 7 -4 19 -2 27 4 11 9 15 9 15 1 0 -6 -5 -11 -11 -11 -5 0 -7 -5 -3 -11 4
-8 9 -8 17 0 13 13 61 15 53 3 -7 -12 62 -8 74 4 12 12 53 7 46 -5 -2 -3 9 -6
24 -6 16 -1 26 3 24 7 -3 5 -9 6 -14 3 -5 -3 -11 -1 -15 4 -3 6 4 8 16 6 13
-3 28 0 34 5 8 7 12 5 12 -5 0 -8 -4 -12 -9 -9 -4 3 -8 0 -8 -6 0 -7 7 -9 16
-6 9 4 24 1 33 -6 10 -8 8 -3 -4 11 -11 14 -14 21 -7 17 7 -4 19 -2 27 4 11 9
15 9 15 1 0 -6 -5 -11 -11 -11 -5 0 -7 -5 -3 -11 4 -8 9 -8 17 0 13 13 61 15
53 3 -7 -12 62 -8 74 4 12 12 53 7 46 -5 -2 -3 9 -6 24 -6 16 -1 26 3 24 7 -3
5 -9 6 -14 3 -5 -3 -11 -1 -15 4 -3 6 4 8 16 6 13 -3 28 0 34 5 8 7 12 5 12
-5 0 -8 -4 -12 -9 -9 -4 3 -8 0 -8 -6 0 -7 7 -9 16 -6 9 4 24 1 33 -6 10 -8 8
-3 -4 11 -11 14 -14 21 -7 17 7 -4 19 -2 27 4 11 9 15 9 15 1 0 -6 -5 -11 -11
-11 -5 0 -7 -5 -3 -11 4 -8 9 -8 17 0 13 13 61 15 53 3 -7 -12 62 -8 74 4 12
12 53 7 46 -5 -3 -4 7 -6 22 -6 15 1 35 -3 46 -8 22 -11 45 6 25 18 -8 5 -10
4 -5 -3 4 -7 3 -12 -3 -12 -5 0 -13 5 -16 10 -4 6 -15 8 -25 5 -10 -3 -21 -1
-25 4 -4 7 1 8 11 4 12 -5 15 -3 9 6 -6 10 -3 11 14 2 12 -7 26 -9 31 -6 5 3
19 -4 31 -16 l21 -21 -7 22 c-6 20 -5 21 17 9 21 -11 22 -11 9 5 -8 9 -10 16
-5 15 5 0 20 2 32 6 18 6 20 10 10 16 -10 7 -10 9 0 9 6 0 12 8 12 17 0 9 8
26 18 37 l17 20 -30 -19 c-20 -12 -26 -14 -18 -4 9 11 9 19 2 26 -7 7 -6 12 5
16 11 4 13 1 10 -11 -5 -14 -4 -14 4 -3 6 8 8 20 5 28 -3 7 1 21 8 30 13 15
12 15 -9 4 -12 -7 -20 -17 -16 -23 4 -7 2 -8 -5 -4 -8 6 -9 12 -2 20 7 9 7 16
0 23 -7 7 -6 12 5 16 11 4 13 1 10 -11 -5 -14 -4 -14 4 -3 6 8 8 20 5 28 -3 7
1 21 8 30 13 15 12 15 -9 4 -12 -7 -20 -17 -16 -23 4 -7 2 -8 -5 -4 -8 6 -9
12 -2 20 7 9 7 16 0 23 -7 7 -6 12 5 16 11 4 13 1 10 -11 -5 -14 -4 -14 4 -3
6 8 8 21 4 29 -4 11 -2 13 9 7 12 -8 12 -6 1 8 -8 9 -10 22 -6 28 4 7 3 10 -2
6 -5 -3 -14 6 -21 19 -6 13 -7 22 -3 19 5 -3 12 0 17 7 10 17 11 78 1 72 -4
-3 -8 6 -8 20 0 14 5 28 10 31 6 4 7 11 4 17 -4 6 -10 5 -16 -3 -6 -10 -7 -7
-3 9 4 14 2 22 -6 22 -7 0 -9 3 -6 7 4 3 17 -2 29 -13 17 -14 19 -15 9 -2 -7
9 -9 23 -5 29 5 8 3 9 -6 4 -10 -6 -12 -4 -6 11 4 10 9 24 10 29 1 6 5 16 10
23 7 11 4 12 -13 3 -11 -7 -21 -16 -21 -22 0 -6 5 -7 12 -3 7 5 8 3 3 -5 -5
-9 -10 -10 -18 -2 -7 7 -7 14 1 24 8 9 8 17 1 24 -7 7 -6 12 5 16 11 4 13 1
10 -11 -5 -14 -4 -14 4 -3 6 8 8 20 5 28 -3 7 1 21 8 30 13 15 12 15 -9 4 -12
-7 -20 -17 -16 -23 4 -7 2 -8 -5 -4 -8 6 -9 12 -2 20 7 9 7 16 0 23 -7 7 -6
12 5 16 11 4 13 1 9 -11 -3 -9 -3 -14 2 -10 4 4 9 42 10 83 1 42 -2 71 -6 64
-4 -7 -6 -16 -4 -19 2 -4 -2 -7 -9 -7 -15 0 -6 23 22 58 10 13 9 16 -3 16 -8
0 -12 -3 -10 -7 2 -4 -2 -7 -10 -7 -12 0 -12 4 2 20 17 19 27 91 11 81 -4 -3
-8 2 -8 11 0 10 -5 13 -12 9 -10 -6 -9 -3 0 8 10 13 11 22 2 38 -8 15 -8 25
-1 34 7 9 7 16 0 23 -7 7 -6 12 5 16 11 4 13 1 10 -11 -5 -14 -4 -14 4 -3 6 8
8 20 5 28 -3 7 1 21 8 30 13 15 12 15 -9 4 -12 -7 -20 -17 -16 -23 4 -7 2 -8
-5 -4 -8 6 -9 12 -2 20 7 9 7 16 0 23 -7 7 -6 12 5 16 11 4 13 1 10 -11 -5
-14 -4 -14 4 -3 6 8 8 21 4 29 -4 11 -2 13 9 7 12 -8 12 -6 1 8 -8 9 -10 22
-6 28 4 7 3 10 -2 6 -5 -3 -14 6 -21 19 -6 13 -7 22 -3 19 5 -3 12 0 17 7 10
17 11 78 1 72 -4 -3 -8 6 -8 20 0 14 5 28 10 31 6 4 7 11 4 17 -4 6 -10 5 -16
-3 -6 -10 -7 -7 -3 9 4 14 2 22 -6 22 -7 0 -9 3 -6 7 4 3 17 -2 29 -13 17 -14
19 -15 9 -2 -7 9 -9 23 -5 29 5 8 3 9 -6 4 -10 -6 -12 -4 -6 11 4 10 9 24 10
29 1 6 5 16 10 23 7 11 4 12 -13 3 -11 -7 -21 -16 -21 -22 0 -6 5 -7 12 -3 7
5 8 3 3 -5 -5 -9 -10 -10 -18 -2 -7 7 -7 14 1 24 8 9 8 17 1 24 -7 7 -6 12 5
16 11 4 13 1 10 -11 -5 -14 -4 -14 4 -3 6 8 8 20 5 28 -3 7 1 21 8 30 13 15
12 15 -9 4 -12 -7 -20 -17 -16 -23 4 -7 2 -8 -5 -4 -8 6 -9 12 -2 20 7 9 7 16
0 23 -7 7 -6 12 5 16 11 4 13 1 9 -11 -3 -9 -3 -14 2 -10 4 4 9 42 10 83 1 42
-2 71 -6 64 -4 -7 -6 -16 -4 -19 2 -4 -2 -7 -9 -7 -15 0 -6 23 22 58 10 13 9
16 -3 16 -8 0 -12 -3 -10 -7 2 -4 -2 -7 -10 -7 -12 0 -12 4 2 20 17 19 27 91
11 81 -4 -3 -8 2 -8 11 0 10 -5 13 -12 9 -10 -6 -9 -3 0 8 10 12 11 22 3 36
-7 14 -7 19 4 19 7 0 11 -6 8 -13 -2 -6 0 -15 6 -19 6 -3 11 -11 11 -16 0 -6
-5 -7 -12 -3 -7 5 -8 3 -3 -5 12 -20 29 3 18 25 -5 11 -9 47 -8 82 1 34 -2 57
-6 50 -4 -6 -6 -15 -4 -18 2 -4 -2 -7 -9 -7 -15 0 -6 23 22 58 10 13 9 16 -3
16 -8 0 -12 -3 -10 -7 2 -4 -2 -7 -10 -7 -12 0 -12 4 2 20 17 19 27 91 11 81
-4 -3 -8 2 -8 11 0 10 -5 13 -12 9 -10 -6 -9 -3 0 8 10 13 11 22 2 38 -8 16
-9 25 -1 33 7 7 7 14 1 23 -7 8 -6 13 4 17 11 4 13 1 10 -11 -5 -14 -4 -14 4
-3 6 8 8 20 5 28 -3 7 1 21 8 30 13 15 12 15 -9 4 -12 -7 -20 -17 -16 -23 4
-7 2 -8 -5 -4 -8 6 -9 12 -2 20 7 9 7 16 0 23 -7 7 -6 12 5 16 11 4 13 1 10
-11 -5 -14 -4 -14 4 -3 6 8 8 21 4 29 -4 11 -1 13 8 7 10 -6 11 -4 4 6 -5 8
-10 25 -10 39 -3 54 -2 54 -21 39 -17 -13 -17 -12 -4 4 13 16 13 20 0 28 -8 5
-9 9 -3 9 6 0 11 7 11 15 0 12 -3 12 -16 2 -12 -9 -13 -9 -7 1 7 11 -11 17
-37 13 -5 -1 -6 3 -2 9 3 5 -1 10 -10 10 -10 0 -13 -5 -9 -12 4 -7 3 -8 -5 -4
-8 6 -9 12 -2 20 17 21 -25 13 -50 -10 -12 -10 -19 -14 -16 -7 9 14 -31 14
-50 1 -7 -5 -14 -4 -18 3 -6 8 -10 7 -16 -2 -6 -10 -9 -11 -9 -1 0 6 -7 12
-16 12 -8 0 -13 4 -10 8 3 5 -2 9 -10 9 -9 0 -13 -6 -9 -15 4 -12 3 -12 -9 -3
-11 9 -15 8 -20 -5 -5 -13 -9 -14 -20 -5 -11 9 -15 9 -19 -1 -4 -10 -6 -10 -6
0 -1 6 -8 12 -17 12 -8 0 -13 4 -10 8 3 5 -2 9 -10 9 -9 0 -13 -6 -9 -15 4
-12 3 -12 -9 -3 -11 9 -15 8 -20 -5 -5 -13 -9 -14 -20 -5 -11 9 -15 9 -19 -1
-4 -10 -6 -10 -6 0 -1 6 -8 12 -17 12 -8 0 -13 4 -10 8 3 5 -2 9 -10 9 -9 0
-13 -6 -9 -15 4 -12 3 -12 -9 -3 -11 9 -15 8 -20 -5 -5 -13 -9 -14 -20 -5 -11
9 -15 9 -19 -1 -4 -10 -6 -10 -6 0 -1 6 -8 12 -17 12 -8 0 -13 4 -10 8 3 5 -2
9 -10 9 -9 0 -13 -6 -9 -15 4 -12 3 -12 -9 -3 -11 9 -15 8 -20 -5 -5 -13 -9
-14 -20 -5 -11 9 -15 9 -19 -1 -4 -10 -6 -10 -6 0 -1 6 -8 12 -17 12 -8 0 -13
4 -10 8 3 5 -2 9 -10 9 -9 0 -13 -6 -9 -15 4 -12 3 -12 -9 -3 -11 9 -15 8 -20
-5 -5 -13 -9 -14 -20 -5 -11 9 -15 9 -19 -1 -4 -10 -6 -10 -6 0 -1 6 -8 12
-17 12 -8 0 -13 4 -10 8 3 5 -2 9 -10 9 -9 0 -13 -6 -9 -15 4 -12 3 -12 -9 -3
-11 9 -15 8 -20 -5 -5 -13 -9 -14 -20 -5 -11 9 -15 9 -19 -1 -4 -10 -6 -10 -6
0 -1 6 -8 12 -17 12 -8 0 -13 4 -10 8 3 5 -2 9 -10 9 -9 0 -13 -6 -9 -15 4
-12 3 -12 -9 -3 -11 9 -15 8 -20 -5 -5 -13 -9 -14 -20 -5 -11 9 -15 9 -19 -1
-4 -10 -6 -10 -6 0 -1 6 -8 12 -17 12 -8 0 -13 4 -10 8 3 5 -2 9 -10 9 -9 0
-13 -6 -9 -15 4 -12 3 -12 -9 -3 -11 9 -15 8 -20 -5 -5 -13 -9 -14 -20 -5 -11
9 -15 9 -19 -1 -4 -10 -6 -10 -6 0 -1 6 -8 12 -17 12 -8 0 -13 4 -10 8 3 5 -2
9 -10 9 -9 0 -13 -6 -9 -15 4 -12 3 -12 -9 -3 -11 9 -15 8 -20 -5 -5 -13 -9
-14 -20 -5 -11 9 -15 9 -19 -1 -4 -10 -6 -10 -6 0 -1 6 -8 12 -17 12 -8 0 -13
4 -10 8 3 5 -2 9 -10 9 -9 0 -13 -6 -9 -15 4 -12 3 -12 -9 -3 -11 9 -15 8 -20
-5 -5 -13 -10 -14 -18 -6 -6 6 -18 8 -27 5 -13 -4 -14 -3 -1 5 8 6 17 9 21 6
4 -2 12 3 19 11 13 15 9 21 -4 8z m-619 -35 c-3 -8 -6 -5 -6 6 -1 11 2 17 5
13 3 -3 4 -12 1 -19z m80 0 c-3 -8 -6 -5 -6 6 -1 11 2 17 5 13 3 -3 4 -12 1
-19z m80 0 c-3 -8 -6 -5 -6 6 -1 11 2 17 5 13 3 -3 4 -12 1 -19z m80 0 c-3 -8
-6 -5 -6 6 -1 11 2 17 5 13 3 -3 4 -12 1 -19z m80 0 c-3 -8 -6 -5 -6 6 -1 11
2 17 5 13 3 -3 4 -12 1 -19z m80 0 c-3 -8 -6 -5 -6 6 -1 11 2 17 5 13 3 -3 4
-12 1 -19z m80 0 c-3 -8 -6 -5 -6 6 -1 11 2 17 5 13 3 -3 4 -12 1 -19z m80 0
c-3 -8 -6 -5 -6 6 -1 11 2 17 5 13 3 -3 4 -12 1 -19z m1360 0 c-3 -8 -6 -5 -6
6 -1 11 2 17 5 13 3 -3 4 -12 1 -19z m120 -110 c2 -17 0 -19 -7 -8 -5 8 -6 18
-4 22 8 12 10 10 11 -14z m-8 -32 c9 -11 9 -16 -1 -22 -7 -4 -10 -4 -6 1 4 4
3 14 -3 22 -6 7 -9 13 -6 13 2 0 10 -6 16 -14z m-2544 -17 c-3 -3 5 -9 16 -12
14 -4 19 -1 16 7 -3 7 1 13 9 13 8 0 13 -6 10 -14 -4 -10 -1 -11 13 -4 10 6
21 7 25 4 3 -3 6 0 6 8 0 11 2 11 10 -1 9 -13 10 -13 10 0 0 12 2 12 9 2 10
-17 42 -22 58 -10 7 5 17 7 23 3 5 -3 10 0 10 7 0 9 3 9 10 -2 7 -11 10 -12
10 -2 0 10 3 10 15 -1 16 -16 75 -13 86 5 4 5 9 3 12 -6 5 -12 14 -15 34 -10
16 4 31 12 35 18 5 8 8 7 8 -1 0 -19 37 -36 46 -21 4 7 3 8 -4 4 -7 -4 -12 -2
-12 4 0 7 8 9 19 5 38 -12 61 -14 66 -5 3 5 -3 7 -15 5 -11 -2 -22 0 -25 4 -4
7 31 8 60 1 6 -1 12 -1 15 0 19 7 39 7 34 -1 -5 -9 4 -12 39 -12 9 0 17 -3 17
-6 0 -4 9 -7 20 -8 23 -2 28 13 5 15 -8 1 -22 3 -30 4 -18 2 -11 11 10 14 8 1
15 -2 15 -7 0 -6 6 -7 13 -2 17 11 38 13 32 3 -3 -4 2 -11 11 -14 8 -3 12 -2
9 3 -5 9 36 8 82 -3 13 -3 25 -1 28 4 3 5 -3 7 -15 5 -11 -2 -22 0 -25 4 -4 7
31 8 60 1 6 -1 12 -1 15 0 19 7 39 7 34 -1 -5 -9 4 -12 39 -12 9 0 17 -3 17
-6 0 -4 9 -7 20 -8 23 -2 28 13 5 15 -8 1 -22 3 -30 4 -18 2 -11 11 10 14 8 1
15 -2 15 -7 0 -6 6 -7 13 -2 18 11 38 13 31 2 -5 -9 -1 -11 34 -12 9 -1 21 -6
25 -12 5 -6 7 -4 4 5 -2 8 -11 14 -18 12 -8 -2 -10 0 -6 4 4 4 15 9 23 10 9 1
13 0 10 -3 -9 -9 15 -34 25 -27 5 3 9 11 9 17 0 7 -4 6 -11 -3 -8 -12 -10 -12
-7 -1 2 8 12 15 21 17 9 1 15 -1 12 -6 -3 -4 2 -11 11 -14 10 -4 13 -2 8 7 -6
9 -5 9 8 0 8 -7 18 -10 21 -6 4 3 7 1 7 -4 0 -6 8 -10 18 -9 9 2 17 8 17 14 0
6 4 14 9 19 5 4 6 3 2 -4 -3 -6 -2 -14 4 -18 5 -3 10 1 10 10 0 13 2 14 14 3
8 -7 12 -17 9 -23 -3 -5 4 -1 14 11 18 21 29 22 101 8 23 -5 32 -3 32 7 1 9 4
8 11 -4 7 -13 17 -15 37 -11 15 4 30 11 33 16 3 5 9 3 12 -5 6 -15 91 -18 115
-4 6 5 17 5 22 2 6 -3 10 0 10 7 0 9 3 9 10 -2 9 -13 10 -13 10 0 0 12 2 12 9
2 10 -17 42 -22 58 -10 7 5 17 7 23 3 5 -3 10 0 10 7 0 9 3 9 10 -2 7 -11 10
-12 10 -2 0 10 3 10 15 -1 16 -16 75 -13 86 5 4 5 9 3 12 -6 5 -12 14 -15 34
-10 16 4 30 11 32 16 1 5 9 1 15 -8 12 -16 42 -11 32 5 -3 4 1 8 9 8 8 0 13
-3 10 -5 -3 -3 0 -11 6 -18 12 -15 29 -10 29 9 0 7 -4 6 -11 -3 -8 -12 -10
-12 -7 -1 2 8 12 15 21 17 9 1 15 -1 12 -6 -3 -4 2 -11 11 -14 10 -4 13 -2 8
7 -6 9 -5 9 8 0 8 -7 18 -10 21 -6 4 3 7 1 7 -4 0 -6 8 -10 18 -9 9 2 17 8 17
14 0 6 4 14 9 19 5 4 6 3 2 -4 -3 -6 -2 -14 4 -18 5 -3 10 1 10 10 0 13 2 14
14 3 8 -7 12 -17 9 -23 -2 -5 3 -1 12 10 19 24 50 26 88 8 28 -14 38 -26 12
-17 -8 4 -15 2 -16 -2 0 -5 -2 -17 -4 -27 -2 -9 1 -15 6 -11 5 3 7 10 4 15 -4
5 -2 9 3 9 6 0 13 -7 16 -16 4 -10 2 -13 -6 -8 -8 5 -9 2 -5 -10 4 -10 3 -15
-3 -11 -6 3 -10 -1 -10 -9 0 -9 6 -16 13 -17 10 0 10 -2 0 -6 -7 -2 -13 -11
-13 -19 0 -8 -5 -14 -11 -14 -8 0 -9 -4 0 -13 6 -8 8 -17 4 -21 -4 -4 0 -4 8
-1 10 4 16 0 16 -9 0 -8 -4 -13 -9 -10 -4 3 -8 -2 -8 -10 0 -9 6 -16 13 -17
10 0 10 -2 0 -6 -7 -2 -13 -11 -13 -19 0 -8 -5 -14 -11 -14 -8 0 -9 -4 0 -13
6 -8 8 -17 4 -21 -4 -4 0 -4 8 -1 10 4 16 0 16 -9 0 -8 -4 -13 -9 -10 -4 3 -8
-2 -8 -10 0 -9 6 -16 13 -17 10 0 10 -2 0 -6 -7 -2 -13 -11 -13 -18 0 -7 -5
-15 -12 -17 -7 -3 -5 -7 6 -11 9 -4 15 -3 12 1 -2 4 -1 14 4 21 4 8 7 -3 6
-27 -1 -23 -6 -45 -11 -49 -4 -4 -5 -3 -2 3 3 6 -1 11 -9 11 -10 0 -11 -4 -5
-10 7 -7 7 -15 -2 -26 -9 -12 -9 -13 1 -7 7 4 12 1 12 -9 0 -9 4 -14 8 -11 5
3 9 -1 9 -9 0 -8 -4 -12 -9 -9 -4 3 -8 -2 -8 -10 0 -9 -5 -16 -11 -16 -8 0 -9
-4 0 -13 6 -8 7 -18 3 -22 -4 -5 -2 -5 5 -1 7 4 10 13 6 21 -3 8 -1 15 4 15 5
0 9 -13 9 -29 0 -17 -3 -28 -8 -25 -4 3 -8 -2 -8 -11 0 -9 4 -14 8 -11 5 3 9
-1 9 -9 0 -8 -4 -12 -9 -9 -4 3 -8 -2 -8 -10 0 -9 -5 -16 -11 -16 -8 0 -9 -4
0 -13 6 -8 7 -18 3 -22 -4 -5 -2 -5 5 -1 7 4 10 13 6 21 -3 8 -1 15 4 15 5 0
9 -13 9 -29 0 -17 -3 -28 -8 -25 -4 3 -8 -2 -8 -11 0 -9 4 -14 8 -11 5 3 9 -1
9 -9 0 -8 -4 -12 -9 -9 -4 3 -8 -2 -8 -10 0 -9 -5 -16 -11 -16 -8 0 -9 -4 0
-13 6 -8 7 -18 3 -22 -4 -5 -2 -5 5 -1 7 4 10 13 6 21 -3 8 -1 15 4 15 5 0 9
-13 9 -29 0 -17 -3 -28 -8 -25 -4 3 -8 -2 -8 -11 0 -9 4 -14 8 -11 5 3 9 -1 9
-9 0 -8 -4 -12 -9 -9 -4 3 -8 -2 -8 -10 0 -9 -5 -16 -11 -16 -8 0 -9 -4 0 -13
6 -8 7 -18 3 -22 -4 -5 -2 -5 5 -1 7 4 10 13 6 21 -3 8 -1 15 4 15 5 0 9 -13
9 -29 0 -17 -3 -28 -8 -25 -4 3 -8 -2 -8 -11 0 -9 4 -14 8 -11 5 3 9 -1 9 -9
0 -8 -4 -12 -9 -9 -4 3 -8 -1 -8 -10 0 -8 -6 -17 -12 -20 -7 -3 -4 -4 7 -1 15
4 21 0 22 -15 1 -11 -3 -20 -8 -20 -6 0 -7 5 -4 10 3 6 2 10 -4 10 -5 0 -13
-4 -16 -10 -3 -5 -1 -10 4 -10 6 0 10 -3 10 -7 -3 -19 2 -34 9 -29 5 3 9 -1 9
-9 0 -8 -4 -12 -9 -9 -4 3 -8 -2 -8 -10 0 -9 6 -16 13 -17 10 0 10 -2 0 -6 -7
-2 -13 -11 -13 -19 0 -8 -5 -14 -11 -14 -8 0 -8 -4 0 -14 9 -11 9 -15 -1 -20
-7 -3 -4 -4 8 -1 14 4 21 0 21 -9 0 -9 -4 -13 -8 -10 -4 2 -7 -10 -7 -27 1
-17 -5 -34 -12 -39 -9 -6 -9 -9 0 -15 9 -6 9 -10 -1 -17 -10 -7 -8 -8 7 -4 14
4 21 2 21 -8 0 -9 -4 -13 -8 -10 -4 2 -7 -10 -7 -27 1 -17 -5 -34 -12 -39 -9
-6 -9 -9 0 -15 9 -6 9 -10 -1 -17 -10 -7 -8 -8 7 -4 14 4 21 2 21 -8 0 -9 -4
-13 -8 -10 -4 2 -7 -10 -7 -27 1 -17 -5 -34 -12 -39 -9 -6 -9 -9 0 -15 9 -6 9
-10 -1 -17 -10 -7 -8 -8 7 -4 14 4 21 2 21 -8 0 -9 -4 -13 -8 -10 -4 2 -7 -10
-7 -27 1 -17 -5 -34 -12 -39 -9 -5 -9 -9 -1 -14 6 -4 9 -12 6 -17 -3 -5 1 -6
9 -3 16 6 17 -19 1 -33 -4 -4 -5 -3 -2 3 3 6 0 11 -8 11 -13 0 -13 -3 -2 -16
15 -18 12 -51 -5 -51 -7 0 -6 -5 1 -14 8 -10 9 -16 1 -19 -6 -3 -5 -4 2 -3 7
2 12 10 10 20 -4 22 5 20 19 -5 9 -17 8 -20 -2 -14 -9 6 -11 3 -6 -9 4 -9 3
-15 -2 -11 -6 3 -9 -9 -9 -26 1 -17 -5 -34 -12 -39 -9 -6 -9 -9 0 -15 9 -6 9
-10 -1 -17 -10 -7 -8 -8 7 -4 14 4 21 2 21 -8 0 -9 -4 -13 -8 -10 -4 2 -7 -10
-7 -27 1 -17 -5 -34 -12 -39 -9 -6 -9 -9 0 -15 9 -6 9 -10 -1 -17 -10 -7 -8
-8 7 -4 14 4 21 2 21 -8 0 -9 -4 -13 -9 -10 -4 3 -8 -2 -8 -10 0 -9 6 -16 13
-16 6 0 4 -5 -6 -11 -9 -6 -15 -14 -12 -20 4 -5 1 -9 -6 -9 -9 0 -9 -3 0 -14
9 -11 9 -15 -1 -20 -7 -3 -4 -4 8 -1 14 4 21 0 21 -9 0 -9 -5 -12 -10 -9 -6 4
-8 -2 -5 -15 4 -12 2 -25 -3 -28 -5 -3 -7 -10 -4 -15 4 -5 1 -9 -4 -9 -6 0
-11 -4 -11 -8 0 -5 6 -9 14 -9 8 0 13 8 11 19 -2 10 0 18 4 18 10 0 8 -76 -2
-86 -3 -4 -4 3 -2 16 3 18 2 20 -10 10 -8 -7 -12 -17 -8 -24 8 -11 9 -17 12
-37 0 -5 6 -7 11 -4 6 3 10 1 10 -4 0 -6 -7 -11 -16 -11 -8 0 -13 -4 -10 -9 6
-10 -49 -9 -60 1 -3 4 5 5 19 2 29 -5 45 12 28 29 -9 9 -11 8 -6 -3 5 -14 -60
-16 -622 -15 -405 1 -633 -3 -642 -9 -17 -13 -43 -17 -35 -5 3 5 9 7 13 5 4
-3 8 1 8 9 0 8 -4 15 -9 15 -4 0 -8 -4 -8 -10 0 -5 -7 -10 -16 -10 -8 0 -13
-4 -10 -8 2 -4 -5 -9 -17 -9 -17 -2 -19 0 -7 7 13 8 12 10 -2 10 -10 0 -18 -5
-18 -11 0 -5 -5 -7 -10 -4 -6 4 -7 12 -4 18 4 7 4 9 -1 5 -4 -4 -14 -3 -22 3
-9 9 -13 8 -13 0 0 -6 -7 -11 -16 -11 -8 0 -13 -4 -10 -8 2 -4 -5 -9 -17 -9
-17 -2 -19 0 -7 7 13 8 12 10 -2 10 -10 0 -18 -5 -18 -11 0 -5 -5 -7 -10 -4
-6 4 -7 12 -4 18 4 7 4 9 -1 5 -4 -4 -14 -3 -22 3 -9 9 -13 8 -13 0 0 -6 -7
-11 -16 -11 -8 0 -13 -4 -10 -8 2 -4 -5 -9 -17 -9 -17 -2 -19 0 -7 7 13 8 12
10 -2 10 -10 0 -18 -5 -18 -11 0 -5 -5 -7 -10 -4 -6 4 -7 12 -4 18 4 7 4 9 -1
5 -4 -4 -14 -3 -22 3 -9 9 -13 8 -13 0 0 -6 -7 -11 -16 -11 -8 0 -13 -4 -10
-8 2 -4 -5 -9 -17 -9 -17 -2 -19 0 -7 7 13 8 12 10 -2 10 -10 0 -18 -5 -18
-11 0 -5 -5 -7 -10 -4 -6 4 -7 12 -4 18 4 7 4 9 -1 5 -4 -4 -14 -3 -22 3 -9 9
-13 8 -13 0 0 -6 -7 -11 -16 -11 -8 0 -13 -4 -10 -8 2 -4 -5 -9 -17 -9 -17 -2
-19 0 -7 7 13 8 12 10 -2 10 -10 0 -18 -5 -18 -11 0 -5 -5 -7 -10 -4 -6 4 -7
12 -4 18 4 7 4 9 -1 5 -4 -4 -14 -3 -22 3 -9 9 -13 8 -13 0 0 -6 -7 -11 -16
-11 -8 0 -13 -4 -10 -8 2 -4 -5 -9 -17 -9 -17 -2 -19 0 -7 7 13 8 12 10 -2 10
-10 0 -18 -5 -18 -11 0 -5 -5 -7 -10 -4 -6 4 -7 12 -4 18 4 7 4 9 -1 5 -4 -4
-14 -3 -22 3 -9 9 -13 8 -13 0 0 -6 -7 -11 -16 -11 -8 0 -13 -4 -10 -8 2 -4
-5 -9 -17 -9 -17 -2 -19 0 -7 7 13 8 12 10 -2 10 -10 0 -18 -5 -18 -11 0 -5
-5 -7 -10 -4 -6 4 -7 12 -4 18 4 7 4 9 -1 5 -4 -4 -14 -3 -22 3 -9 9 -13 8
-13 0 0 -6 -7 -11 -16 -11 -8 0 -13 -4 -10 -8 2 -4 -5 -9 -17 -9 -17 -2 -19 0
-7 7 13 8 12 10 -2 10 -10 0 -18 -5 -18 -11 0 -5 -5 -7 -10 -4 -6 4 -7 12 -4
18 4 7 4 9 -1 5 -4 -4 -14 -3 -22 3 -9 9 -13 8 -13 0 0 -6 -7 -11 -16 -11 -8
0 -13 -4 -10 -8 2 -4 -4 -9 -15 -9 -10 -1 -19 3 -19 8 0 6 6 7 13 3 8 -5 8 -2
-2 9 -15 19 -31 22 -31 6 0 -5 4 -7 10 -4 6 4 7 -1 3 -11 -4 -12 -8 -14 -11
-6 -3 10 -7 10 -20 0 -10 -8 -13 -9 -9 -1 4 6 4 13 0 16 -5 2 -1 2 7 0 8 -2
11 -1 7 3 -4 4 -2 13 4 20 7 8 7 14 -1 19 -6 4 -9 1 -8 -6 2 -6 -4 -14 -12
-16 -10 -3 -11 -2 -4 4 6 4 10 16 8 26 -1 9 2 15 7 11 5 -3 9 0 9 5 0 6 -8 11
-17 12 -14 0 -13 2 5 9 12 5 22 11 22 14 0 2 -10 2 -22 -1 -18 -4 -20 -2 -9 5
12 9 13 16 3 36 -8 19 -8 27 0 32 6 4 8 3 5 -2 -3 -6 -1 -16 4 -24 7 -11 8 -7
5 14 -3 16 -10 32 -16 36 -7 5 -4 9 9 13 12 3 21 11 20 19 0 10 -2 10 -6 1 -6
-15 -29 -17 -38 -3 -3 6 1 7 9 4 16 -6 22 7 9 20 -10 10 -12 35 -3 41 4 2 7
-5 6 -17 0 -12 6 -23 14 -25 10 -3 11 -2 4 4 -6 4 -10 16 -8 26 1 9 -4 23 -12
31 -11 12 -10 15 6 19 11 3 20 11 19 19 0 10 -2 10 -6 1 -2 -7 -12 -13 -21
-13 -14 0 -14 2 -3 9 7 5 11 14 7 20 -5 7 -1 9 11 5 11 -3 14 -2 8 3 -6 4 -10
15 -10 23 1 8 -6 23 -14 33 -13 16 -13 17 0 12 10 -4 15 1 15 15 0 11 -7 20
-16 21 -9 0 -6 4 8 9 28 12 28 20 0 13 -17 -3 -19 -2 -9 5 8 6 11 17 8 27 -4
9 -3 14 3 10 6 -3 10 -1 10 4 0 6 -8 11 -17 12 -14 0 -13 2 5 9 12 5 22 11 22
14 0 2 -10 2 -22 -1 -17 -3 -19 -2 -9 5 8 6 11 18 7 30 -4 11 -2 23 3 26 6 4
8 13 5 21 -4 8 -10 13 -14 10 -10 -6 -7 21 3 31 10 11 9 26 -2 20 -11 -7 -8
20 3 31 4 4 6 2 4 -6 -2 -7 4 -16 12 -18 9 -3 11 -1 5 4 -6 4 -11 16 -12 26
-1 34 -3 38 -12 33 -11 -7 -9 13 2 32 5 6 5 18 0 25 -4 6 -8 19 -8 27 0 8 -3
20 -7 26 -4 6 -1 11 6 11 7 0 12 -12 12 -30 -1 -19 5 -32 14 -34 9 -3 11 -1 5
4 -6 4 -10 33 -10 63 1 61 -3 82 -15 75 -10 -6 -7 21 3 31 10 11 9 26 -2 20
-11 -7 -8 20 3 31 4 4 6 2 4 -6 -2 -7 4 -16 12 -18 9 -3 11 -1 5 4 -6 4 -11
16 -12 26 -1 33 -3 38 -11 33 -4 -2 -8 6 -8 19 0 13 2 22 6 20 3 -1 11 3 18
11 7 8 9 14 4 14 -4 0 -8 10 -9 23 -1 12 -4 38 -8 57 -13 72 -12 85 9 103 12
10 17 17 11 14 -5 -3 -16 1 -23 9 -11 12 -10 14 3 14 9 0 13 5 10 10 -4 6 -12
7 -18 4 -7 -4 -8 -3 -4 2 5 5 13 9 19 9 6 0 12 8 14 18 1 9 -1 17 -6 17 -4 0
-7 8 -7 18 0 34 -3 43 -12 38 -5 -4 -8 2 -7 11 2 9 9 19 17 21 11 3 11 1 -1
-7 -8 -6 -10 -11 -4 -11 6 0 14 3 17 7 8 8 -13 34 -22 28 -4 -2 -8 2 -8 10 0
8 4 12 8 9 16 -10 21 20 5 32 -9 6 -13 14 -8 15 5 2 12 16 16 32 5 20 2 29
-10 34 -9 3 -11 8 -6 12 18 11 21 70 5 86 -11 12 -11 15 -1 15 10 0 9 3 -2 10
-9 6 -11 10 -3 10 7 0 10 7 7 18 -5 14 -4 14 4 2 6 -8 8 -18 6 -22 -3 -4 -1
-8 5 -8 5 0 9 9 8 20 -1 11 -5 20 -9 20 -4 0 -5 9 -3 20 2 11 -3 27 -11 35
-12 11 -12 15 -2 15 10 0 9 3 -2 10 -9 6 -11 10 -3 10 7 0 10 7 7 18 -5 14 -4
14 4 2 6 -8 8 -18 6 -22 -3 -4 -1 -8 5 -8 5 0 9 9 8 20 -1 11 -4 20 -8 20 -3
0 -5 25 -4 56 2 41 -1 57 -12 61 -8 3 -10 9 -5 12 5 3 12 18 16 33 4 20 2 30
-11 37 -12 7 -13 10 -4 11 10 0 12 9 7 33 -12 62 -13 87 -5 82 4 -3 6 -14 4
-24 -2 -11 2 -27 9 -36 11 -16 13 -16 13 -1 0 9 -3 16 -7 16 -3 0 -7 10 -7 23
-1 21 -10 62 -13 62 -1 0 -3 8 -5 18 -2 9 1 17 6 17 6 0 8 4 5 8 -3 5 1 9 9 9
8 0 12 -4 10 -8z m289 3 c3 -5 -1 -9 -9 -9 -8 0 -12 4 -9 9 3 4 7 8 9 8 2 0 6
-4 9 -8z m960 -9 c4 -10 1 -11 -13 -4 -10 6 -22 7 -26 3 -5 -4 -5 -2 -2 4 9
15 35 13 41 -3z m362 5 c3 -4 -1 -5 -10 -4 -8 1 -18 5 -22 8 -3 4 1 5 10 4 8
-1 18 -5 22 -8z m278 4 c3 -5 -1 -9 -9 -9 -8 0 -12 4 -9 9 3 4 7 8 9 8 2 0 6
-4 9 -8z m320 -9 c4 -10 1 -11 -13 -4 -10 6 -22 7 -26 3 -5 -4 -5 -2 -2 4 9
15 35 13 41 -3z m173 -143 c-1 -11 -5 -20 -9 -20 -10 0 -10 4 -2 24 8 22 13
20 11 -4z m0 -120 c-1 -11 -5 -20 -9 -20 -10 0 -10 4 -2 24 8 22 13 20 11 -4z
m166 -25 c-9 -16 -10 -16 -16 -1 -5 12 -3 15 5 10 8 -5 9 -1 4 12 -5 14 -4 16
4 7 8 -7 9 -17 3 -28z m-2567 -51 c1 -9 0 -13 -4 -10 -3 4 -7 14 -8 22 -1 9 0
13 4 10 3 -4 7 -14 8 -22z m2566 -109 c-6 -12 -11 -14 -16 -6 -4 6 -2 11 4 11
7 0 9 7 5 18 -5 13 -3 14 5 5 8 -7 9 -17 2 -28z m-162 -25 c0 -5 -2 -10 -4
-10 -3 0 -8 5 -11 10 -3 6 -1 10 4 10 6 0 11 -4 11 -10z m163 -135 c-9 -16
-10 -16 -16 -1 -5 12 -3 15 5 10 8 -5 9 -1 4 12 -5 14 -4 16 4 7 8 -7 9 -17 3
-28z m-2566 -10 c0 -8 -4 -12 -9 -9 -5 3 -6 10 -3 15 9 13 12 11 12 -6z m2565
-150 c-6 -12 -11 -14 -16 -6 -4 6 -2 11 4 11 7 0 9 7 5 18 -5 13 -3 14 5 5 8
-7 9 -17 2 -28z m-2565 -141 c-3 -4 -2 -15 4 -25 7 -14 6 -17 -5 -13 -8 3 -13
13 -11 22 5 23 4 22 12 22 3 0 3 -3 0 -6z m2568 -234 c3 -5 1 -18 -5 -27 -11
-17 -11 -16 -5 1 3 11 0 23 -7 28 -9 5 -10 8 -1 8 6 0 15 -4 18 -10z m-2569
-36 c1 -9 0 -13 -4 -10 -3 4 -7 14 -8 22 -1 9 0 13 4 10 3 -4 7 -14 8 -22z
m2401 -4 c-1 -11 -5 -20 -9 -20 -10 0 -10 4 -2 24 8 22 13 20 11 -4z m-2560
-66 c-3 -3 -12 -4 -19 -1 -8 3 -5 6 6 6 11 1 17 -2 13 -5z m2722 -8 c9 -11 9
-16 -1 -22 -7 -4 -10 -4 -6 1 4 4 3 14 -3 22 -6 7 -9 13 -6 13 2 0 10 -6 16
-14z m-162 -46 c-1 -11 -5 -20 -9 -20 -10 0 -10 4 -2 24 8 22 13 20 11 -4z
m-2560 -26 c-3 -3 -12 -4 -19 -1 -8 3 -5 6 6 6 11 1 17 -2 13 -5z m0 -80 c-3
-3 -12 -4 -19 -1 -8 3 -5 6 6 6 11 1 17 -2 13 -5z m160 -29 c0 -8 -4 -12 -9
-9 -5 3 -6 10 -3 15 9 13 12 11 12 -6z m2398 5 c3 -5 1 -10 -4 -10 -6 0 -11 5
-11 10 0 6 2 10 4 10 3 0 8 -4 11 -10z m-2558 -56 c-3 -3 -12 -4 -19 -1 -8 3
-5 6 6 6 11 1 17 -2 13 -5z m2726 -79 c-9 -16 -10 -16 -16 -1 -5 12 -3 15 5
10 8 -5 9 -1 4 12 -5 14 -4 16 4 7 8 -7 9 -17 3 -28z m-168 15 c3 -5 1 -10 -4
-10 -6 0 -11 5 -11 10 0 6 2 10 4 10 3 0 8 -4 11 -10z m-2558 -16 c-3 -3 -12
-4 -19 -1 -8 3 -5 6 6 6 11 1 17 -2 13 -5z m0 -80 c-3 -3 -12 -4 -19 -1 -8 3
-5 6 6 6 11 1 17 -2 13 -5z m2560 -14 c-1 -11 -5 -20 -9 -20 -10 0 -10 4 -2
24 8 22 13 20 11 -4z m165 -65 c-6 -12 -11 -14 -16 -6 -4 6 -2 11 4 11 7 0 9
7 5 18 -5 13 -3 14 5 5 8 -7 9 -17 2 -28z m-2725 -1 c-3 -3 -12 -4 -19 -1 -8
3 -5 6 6 6 11 1 17 -2 13 -5z m2560 -174 c-1 -11 -5 -20 -9 -20 -10 0 -10 4
-2 24 8 22 13 20 11 -4z m0 -120 c-1 -11 -5 -20 -9 -20 -10 0 -10 4 -2 24 8
22 13 20 11 -4z m168 -80 c3 -5 1 -18 -5 -27 -11 -17 -11 -16 -5 1 3 11 0 23
-7 28 -9 5 -10 8 -1 8 6 0 15 -4 18 -10z m-168 -40 c-1 -11 -5 -20 -9 -20 -3
0 -6 9 -5 20 1 11 5 20 9 20 3 0 6 -9 5 -20z m162 -74 c9 -11 9 -16 -1 -22 -7
-4 -10 -4 -6 1 4 4 3 14 -3 22 -6 7 -9 13 -6 13 2 0 10 -6 16 -14z m-2439
-174 c0 -5 -7 -9 -15 -9 -8 0 -12 4 -9 9 3 4 9 8 15 8 5 0 9 -4 9 -8z m120 0
c0 -5 -7 -9 -15 -9 -8 0 -12 4 -9 9 3 4 9 8 15 8 5 0 9 -4 9 -8z m120 0 c0 -5
-7 -9 -15 -9 -8 0 -12 4 -9 9 3 4 9 8 15 8 5 0 9 -4 9 -8z m120 0 c0 -5 -7 -9
-15 -9 -8 0 -12 4 -9 9 3 4 9 8 15 8 5 0 9 -4 9 -8z m120 0 c0 -5 -7 -9 -15
-9 -8 0 -12 4 -9 9 3 4 9 8 15 8 5 0 9 -4 9 -8z m120 0 c0 -5 -7 -9 -15 -9 -8
0 -12 4 -9 9 3 4 9 8 15 8 5 0 9 -4 9 -8z m120 0 c0 -5 -7 -9 -15 -9 -8 0 -12
4 -9 9 3 4 9 8 15 8 5 0 9 -4 9 -8z m120 0 c0 -5 -7 -9 -15 -9 -8 0 -12 4 -9
9 3 4 9 8 15 8 5 0 9 -4 9 -8z m200 -3 c0 -4 -13 -6 -30 -5 -16 0 -30 4 -30 7
0 4 14 6 30 5 17 0 30 -4 30 -7z m80 -1 c0 -4 -9 -7 -20 -5 -29 5 -33 13 -5
13 14 0 25 -4 25 -8z m80 0 c0 -4 -9 -7 -20 -5 -29 5 -33 13 -5 13 14 0 25 -4
25 -8z m80 0 c0 -4 -9 -7 -20 -5 -29 5 -33 13 -5 13 14 0 25 -4 25 -8z m80 0
c0 -4 -9 -7 -20 -5 -29 5 -33 13 -5 13 14 0 25 -4 25 -8z m80 0 c0 -4 -9 -7
-20 -5 -29 5 -33 13 -5 13 14 0 25 -4 25 -8z m80 0 c0 -4 -9 -7 -20 -5 -29 5
-33 13 -5 13 14 0 25 -4 25 -8z m80 0 c0 -4 -9 -7 -20 -5 -29 5 -33 13 -5 13
14 0 25 -4 25 -8z m80 0 c0 -4 -9 -7 -20 -5 -29 5 -33 13 -5 13 14 0 25 -4 25
-8z m80 0 c0 -4 -9 -7 -20 -5 -29 5 -33 13 -5 13 14 0 25 -4 25 -8z m80 0 c0
-4 -9 -7 -20 -5 -29 5 -33 13 -5 13 14 0 25 -4 25 -8z m80 0 c0 -4 -9 -7 -20
-5 -29 5 -33 13 -5 13 14 0 25 -4 25 -8z m80 0 c0 -4 -9 -7 -20 -5 -29 5 -33
13 -5 13 14 0 25 -4 25 -8z m80 0 c0 -4 -9 -7 -20 -5 -29 5 -33 13 -5 13 14 0
25 -4 25 -8z m80 0 c0 -4 -9 -7 -20 -5 -29 5 -33 13 -5 13 14 0 25 -4 25 -8z
m-2315 -171 c-11 -6 -21 -5 -28 3 -9 8 -7 9 7 4 13 -5 17 -4 12 4 -5 8 -2 10
10 5 15 -6 15 -7 -1 -16z m160 1 c-11 -7 -21 -6 -28 2 -9 8 -8 10 6 5 10 -4
17 -2 17 5 0 6 5 8 11 4 8 -5 6 -10 -6 -16z m401 7 c17 6 18 6 1 -5 -19 -12
-37 -6 -37 13 0 9 3 8 8 -1 5 -7 17 -10 28 -7z m109 3 c5 4 5 1 1 -6 -6 -10
-11 -10 -22 -1 -8 6 -14 14 -14 16 0 3 6 0 13 -6 8 -6 18 -7 22 -3z m290 -11
c-11 -6 -21 -5 -28 3 -9 8 -7 9 7 4 13 -5 17 -4 12 4 -5 8 -2 10 10 5 15 -6
15 -7 -1 -16z m160 1 c-11 -7 -21 -6 -28 2 -9 8 -8 10 6 5 10 -4 17 -2 17 5 0
6 5 8 11 4 8 -5 6 -10 -6 -16z m240 -1 c-11 -6 -21 -5 -28 3 -9 8 -7 9 7 4 13
-5 17 -4 12 4 -5 8 -2 10 10 5 15 -6 15 -7 -1 -16z m320 0 c-11 -6 -21 -5 -28
3 -9 8 -7 9 7 4 13 -5 17 -4 12 4 -5 8 -2 10 10 5 15 -6 15 -7 -1 -16z m320 0
c-11 -6 -21 -5 -28 3 -9 8 -7 9 7 4 13 -5 17 -4 12 4 -5 8 -2 10 10 5 15 -6
15 -7 -1 -16z m320 0 c-11 -6 -21 -5 -28 3 -9 8 -7 9 7 4 13 -5 17 -4 12 4 -5
8 -2 10 10 5 15 -6 15 -7 -1 -16z"/>
<path d="M1405 3190 c-3 -5 -12 -7 -20 -3 -8 3 -15 1 -15 -4 0 -15 38 -13 44
3 6 16 0 19 -9 4z"/>
<path d="M1725 3190 c-3 -5 -12 -7 -20 -3 -8 3 -15 1 -15 -4 0 -15 38 -13 44
3 6 16 0 19 -9 4z"/>
<path d="M2165 3189 c3 -4 14 -6 25 -4 11 2 20 0 20 -4 0 -4 7 -8 15 -8 10 0
12 4 6 10 -12 12 -73 18 -66 6z"/>
<path d="M3126 3188 c3 -5 9 -7 12 -4 3 3 11 1 19 -6 10 -8 17 -8 25 0 7 7 8
12 3 13 -51 5 -63 5 -59 -3z"/>
<path d="M806 3175 c-3 -8 -1 -17 5 -20 5 -4 6 -12 3 -18 -4 -7 -3 -9 1 -4 13
11 16 45 6 51 -5 3 -11 -1 -15 -9z"/>
<path d="M896 3182 c-2 -4 9 -8 25 -8 33 -2 33 4 1 11 -12 2 -24 1 -26 -3z"/>
<path d="M1010 3182 c0 -4 9 -8 20 -9 11 -1 20 2 20 5 0 4 -9 8 -20 9 -11 1
-20 -2 -20 -5z"/>
<path d="M1596 3178 c3 -5 10 -6 15 -3 13 9 11 12 -6 12 -8 0 -12 -4 -9 -9z"/>
<path d="M2490 3182 c0 -4 9 -8 20 -9 11 -1 20 2 20 5 0 4 -9 8 -20 9 -11 1
-20 -2 -20 -5z"/>
<path d="M2610 3182 c0 -4 9 -8 20 -9 11 -1 20 2 20 5 0 4 -9 8 -20 9 -11 1
-20 -2 -20 -5z"/>
<path d="M1297 2815 c-11 -7 -25 -11 -31 -9 -7 3 -19 -2 -26 -10 -7 -9 -16
-14 -20 -11 -5 3 -12 0 -16 -6 -4 -8 -3 -9 4 -5 8 5 11 -1 10 -18 -1 -13 -6
-22 -10 -20 -5 3 -5 10 -2 16 4 6 2 8 -4 5 -11 -8 -11 -25 1 -44 5 -9 3 -11
-6 -7 -8 3 -18 0 -23 -7 -4 -8 -3 -10 4 -5 7 4 12 2 12 -4 0 -6 5 -8 12 -4 7
4 8 3 4 -5 -4 -6 -11 -9 -16 -6 -5 3 -12 0 -16 -6 -4 -7 -3 -9 3 -6 13 8 30
-12 30 -36 0 -13 -6 -16 -20 -11 -17 5 -18 4 -6 -9 8 -8 17 -13 21 -11 12 7 3
-23 -16 -51 -10 -15 -14 -25 -10 -22 5 3 16 -2 24 -11 13 -14 12 -15 -3 -9 -9
3 -19 1 -23 -5 -4 -7 -3 -8 4 -4 16 10 15 -26 0 -43 -8 -9 -8 -11 -2 -8 7 4
15 0 18 -9 3 -8 2 -12 -3 -9 -5 3 -13 0 -17 -6 -5 -8 -3 -9 6 -4 10 6 12 4 7
-8 -3 -10 -2 -17 2 -17 5 0 11 6 14 13 3 6 4 2 4 -10 -1 -18 -6 -22 -21 -17
-16 5 -17 4 -5 -9 8 -8 17 -13 21 -11 3 2 5 -4 3 -13 -2 -10 -4 -22 -4 -26 -1
-5 -5 -6 -10 -2 -5 3 -13 0 -17 -6 -4 -7 -3 -9 3 -6 6 4 16 0 23 -8 11 -13 10
-14 -5 -9 -13 5 -16 4 -11 -5 4 -6 2 -19 -6 -28 -7 -9 -8 -14 -2 -10 7 4 17 0
24 -8 11 -13 10 -14 -3 -10 -8 4 -18 1 -23 -6 -4 -8 -3 -10 4 -5 7 4 12 2 12
-4 0 -6 5 -8 12 -4 7 4 8 3 4 -5 -4 -6 -11 -9 -16 -6 -5 3 -12 0 -16 -6 -4 -7
-3 -9 3 -6 13 8 30 -12 30 -36 0 -13 -6 -16 -20 -11 -17 5 -18 4 -6 -9 8 -8
17 -13 21 -11 12 7 3 -23 -16 -51 -10 -15 -14 -25 -10 -22 5 3 16 -2 24 -11
13 -14 12 -15 -3 -9 -9 3 -19 1 -23 -5 -4 -7 -3 -8 4 -4 16 10 15 -26 0 -43
-8 -9 -8 -11 -2 -8 7 4 15 0 18 -9 3 -8 2 -12 -3 -9 -5 3 -13 0 -17 -6 -5 -8
-3 -9 6 -4 10 6 12 4 7 -8 -3 -10 -2 -17 2 -17 5 0 11 6 14 13 3 6 4 2 4 -10
-1 -18 -6 -22 -21 -17 -16 5 -17 4 -5 -9 8 -8 17 -13 21 -11 3 2 5 -4 3 -13
-2 -10 -4 -22 -4 -26 -1 -5 -5 -6 -10 -2 -5 3 -13 0 -17 -6 -4 -7 -3 -9 3 -6
6 4 16 0 23 -8 11 -13 10 -14 -5 -9 -13 5 -16 4 -11 -5 4 -6 2 -19 -6 -28 -7
-9 -8 -14 -2 -10 7 4 17 0 24 -8 11 -13 10 -14 -3 -10 -8 4 -18 1 -23 -6 -4
-8 -3 -10 4 -5 7 4 12 2 12 -4 0 -6 5 -8 12 -4 7 4 8 3 4 -5 -4 -6 -11 -9 -16
-6 -5 3 -12 0 -16 -6 -4 -7 -3 -9 3 -6 13 8 30 -12 30 -36 0 -13 -6 -16 -20
-11 -17 5 -18 4 -6 -9 8 -8 17 -13 21 -11 12 7 3 -23 -16 -51 -10 -15 -14 -25
-10 -22 5 3 16 -2 24 -11 13 -14 12 -15 -3 -9 -9 3 -19 1 -23 -5 -4 -7 -3 -8
4 -4 16 10 15 -26 0 -43 -8 -9 -8 -11 -2 -8 7 4 15 0 18 -9 3 -8 2 -12 -3 -9
-5 3 -13 0 -17 -6 -4 -8 -3 -9 4 -5 15 9 16 -6 2 -20 -7 -7 -6 -11 4 -11 8 0
13 4 10 8 -2 4 0 10 5 13 5 4 8 -2 7 -11 -2 -9 -8 -19 -14 -21 -7 -2 -9 -8 -6
-13 3 -6 1 -16 -5 -23 -8 -9 -7 -13 4 -13 8 0 12 4 9 8 -2 4 -1 10 4 13 4 2 8
-6 8 -19 0 -14 -5 -21 -12 -18 -7 2 -15 -1 -20 -8 -4 -8 -3 -10 4 -5 15 9 16
-6 2 -20 -7 -7 -6 -11 4 -11 8 0 13 4 10 8 -2 4 0 10 4 13 5 3 8 -7 7 -22 -1
-15 2 -36 7 -47 l9 -20 -17 20 c-10 12 -15 14 -12 5 3 -8 14 -20 26 -26 12 -6
19 -14 14 -18 -4 -5 2 -7 13 -5 11 2 26 0 34 -5 9 -6 12 -5 8 1 -3 5 0 10 8
10 8 0 12 -5 8 -10 -3 -5 4 -6 17 -2 13 4 20 3 17 -2 -4 -5 0 -10 7 -10 8 0
12 7 9 16 -3 11 0 10 11 -3 14 -17 19 -16 18 4 0 3 15 5 33 6 27 0 31 -2 19
-10 -12 -9 -10 -11 10 -11 13 0 22 3 19 8 -8 13 10 7 31 -10 12 -10 15 -11 9
-3 -18 19 -16 26 6 26 11 0 17 -4 14 -9 -2 -4 7 -5 21 -1 18 4 26 2 26 -7 0
-11 2 -11 8 -1 5 7 23 14 40 17 18 2 30 0 27 -5 -5 -9 63 -5 72 4 3 3 14 1 24
-4 11 -6 20 -6 24 -1 3 6 14 9 25 8 10 -1 17 -4 14 -8 -4 -8 65 -3 73 4 2 3
20 -1 40 -9 19 -8 32 -10 28 -5 -10 17 6 13 29 -6 12 -10 15 -11 9 -3 -18 19
-16 26 6 26 11 0 17 -4 14 -9 -3 -5 4 -6 17 -2 15 5 25 2 31 -6 6 -10 9 -11 9
-1 0 6 7 12 15 12 8 0 15 -5 15 -11 0 -5 5 -7 10 -4 6 4 8 9 6 13 -2 4 20 7
49 8 51 0 53 -1 43 -20 -10 -18 -9 -19 4 -9 8 7 19 9 23 5 5 -4 5 -1 1 6 -4 6
-4 12 1 13 4 0 16 2 26 4 10 2 14 -1 11 -7 -4 -6 2 -8 16 -3 13 4 20 3 17 -2
-4 -5 0 -10 7 -10 8 0 12 7 9 16 -3 11 0 10 11 -3 14 -17 19 -16 18 4 0 3 15
5 33 6 27 0 31 -2 19 -10 -12 -9 -10 -11 10 -11 13 0 22 3 19 8 -8 13 10 7 31
-10 12 -10 15 -11 9 -3 -18 19 -16 26 6 26 11 0 17 -4 14 -9 -2 -4 7 -5 21 -1
17 4 26 2 26 -6 0 -7 6 -6 16 4 19 19 31 21 16 3 -8 -10 -6 -13 8 -13 10 0 16
4 14 8 -9 14 9 9 30 -9 12 -10 15 -11 9 -3 -18 19 -16 26 6 26 11 0 17 -4 14
-9 -2 -4 7 -5 21 -1 18 4 26 2 26 -7 0 -12 2 -12 9 0 5 8 18 12 30 8 12 -3 19
-2 16 3 -3 4 5 10 16 13 15 4 20 11 15 23 -6 15 -4 15 10 3 16 -13 16 -12 5 9
-8 15 -8 22 -1 22 7 0 8 6 1 19 -6 10 -8 20 -6 23 8 8 14 79 6 74 -4 -3 -7 19
-7 49 1 29 3 53 6 53 20 -1 21 4 4 18 -13 11 -14 14 -3 11 9 -3 16 1 16 9 0 7
-5 11 -10 7 -5 -3 -6 4 -2 17 5 14 3 20 -3 16 -6 -3 -9 1 -7 11 2 10 4 22 4
26 1 5 7 5 14 1 6 -4 9 -4 5 1 -4 4 -2 15 5 23 10 13 9 14 -9 4 -19 -10 -20
-8 -20 43 1 29 3 53 6 53 18 -1 23 4 11 11 -13 8 -23 70 -11 69 20 -1 21 4 4
18 -13 11 -14 14 -3 11 9 -3 16 1 16 9 0 7 -5 11 -10 7 -5 -3 -6 4 -2 17 5 14
3 20 -3 16 -6 -3 -9 1 -7 11 2 10 4 22 4 26 1 5 7 5 14 1 6 -4 9 -4 5 1 -4 4
-2 15 5 23 10 13 9 14 -9 4 -19 -10 -20 -8 -20 43 1 29 3 53 6 53 18 -1 23 4
11 11 -13 8 -23 70 -11 69 20 -1 21 4 4 18 -13 11 -14 14 -3 11 9 -3 16 1 16
9 0 7 -5 11 -10 7 -5 -3 -6 4 -2 17 5 14 3 20 -3 16 -6 -3 -9 1 -7 11 2 10 4
22 4 26 1 5 7 5 14 1 6 -4 9 -4 5 1 -4 4 -2 15 5 23 10 13 9 14 -9 4 -19 -10
-20 -8 -20 43 1 29 3 53 6 53 18 -1 23 4 11 11 -13 8 -23 70 -11 69 20 -1 21
4 4 18 -13 11 -14 14 -3 11 9 -3 16 1 16 9 0 7 -5 11 -10 7 -5 -3 -6 4 -2 17
5 14 3 20 -3 16 -6 -3 -9 1 -7 11 2 10 4 22 4 26 1 5 7 5 14 1 6 -4 9 -4 5 1
-4 4 -2 15 5 23 10 13 9 14 -9 4 -19 -10 -20 -8 -20 43 1 29 4 51 8 49 4 -2 9
0 13 6 3 5 1 10 -4 10 -6 0 -11 9 -11 21 0 13 -4 18 -12 13 -10 -6 -10 -5 -2
7 17 20 -10 41 -53 42 -16 0 -17 17 -1 17 6 0 8 3 4 7 -4 5 -14 -1 -22 -11
-13 -18 -14 -18 -14 -2 0 9 -4 14 -10 11 -5 -3 -10 -1 -10 6 0 7 -3 9 -6 6 -4
-4 -2 -13 4 -20 9 -10 8 -14 -3 -14 -8 0 -15 6 -15 14 0 7 -5 13 -11 13 -6 0
-8 -7 -5 -16 5 -14 4 -15 -9 -4 -8 7 -12 17 -8 23 3 6 1 7 -6 3 -6 -4 -9 -11
-6 -16 3 -5 0 -12 -6 -16 -8 -4 -9 -3 -5 4 4 7 2 12 -4 12 -6 0 -8 5 -4 12 5
7 3 8 -5 4 -7 -5 -10 -15 -6 -23 4 -13 3 -14 -10 -3 -8 7 -12 17 -8 24 4 6 -1
5 -10 -2 -9 -8 -22 -10 -28 -6 -9 5 -10 2 -5 -11 5 -15 4 -16 -9 -5 -8 7 -12
17 -8 23 3 6 1 7 -6 3 -6 -4 -9 -12 -6 -17 4 -5 3 -9 -2 -10 -4 0 -16 -2 -26
-4 -9 -2 -15 0 -13 3 2 4 -3 13 -11 21 -13 12 -14 11 -9 -5 5 -15 1 -20 -17
-21 -12 0 -16 1 -9 4 6 3 12 9 12 14 0 4 -7 5 -17 2 -12 -5 -14 -3 -8 7 5 9 4
11 -4 6 -6 -4 -9 -12 -6 -17 3 -5 -1 -6 -9 -3 -9 3 -13 11 -9 18 3 6 1 6 -8
-1 -17 -16 -53 -17 -43 -1 4 7 3 8 -4 4 -6 -4 -8 -14 -5 -23 6 -15 5 -16 -9
-3 -9 8 -14 19 -11 24 3 4 -7 0 -22 -10 -28 -19 -58 -28 -51 -16 2 4 -3 13
-11 21 -13 12 -14 11 -9 -6 5 -14 2 -20 -11 -20 -24 0 -44 17 -36 30 3 6 1 7
-6 3 -6 -4 -9 -11 -6 -16 3 -5 0 -12 -6 -16 -8 -4 -9 -3 -5 4 4 7 2 12 -4 12
-6 0 -8 5 -4 12 5 7 3 8 -5 4 -7 -5 -10 -15 -6 -23 4 -13 3 -14 -10 -3 -8 7
-12 17 -8 24 4 6 -1 5 -10 -2 -9 -8 -22 -10 -28 -6 -9 5 -10 2 -5 -11 5 -15 4
-16 -9 -5 -8 7 -12 17 -8 23 3 6 1 7 -6 3 -6 -4 -9 -12 -6 -17 4 -5 3 -9 -2
-10 -4 0 -16 -2 -26 -4 -9 -2 -15 0 -13 3 2 4 -3 13 -11 21 -13 12 -14 11 -9
-5 5 -15 1 -20 -17 -21 -12 0 -16 1 -9 4 6 3 12 9 12 14 0 4 -7 5 -17 2 -12
-5 -14 -3 -8 7 5 9 4 11 -4 6 -6 -4 -9 -12 -6 -17 3 -5 -1 -6 -9 -3 -9 3 -13
11 -9 18 3 6 1 6 -8 -1 -17 -16 -53 -17 -43 -1 4 7 3 8 -4 4 -6 -4 -8 -14 -5
-23 6 -15 5 -16 -9 -3 -9 8 -14 19 -11 24 3 4 -7 0 -22 -10 -28 -19 -58 -28
-51 -16 2 4 -3 13 -11 21 -13 12 -14 11 -9 -6 5 -14 2 -20 -11 -20 -24 0 -44
17 -36 30 3 6 1 7 -6 3 -6 -4 -9 -11 -6 -16 3 -5 0 -12 -6 -16 -8 -4 -9 -3 -5
4 4 7 2 12 -4 12 -6 0 -8 5 -4 12 5 7 3 8 -5 4 -7 -5 -10 -15 -6 -23 4 -13 3
-14 -10 -3 -8 7 -12 17 -8 24 4 6 -1 5 -10 -2 -9 -8 -22 -10 -28 -6 -9 5 -10
2 -5 -11 5 -15 4 -16 -9 -5 -8 7 -12 17 -8 23 3 6 1 7 -6 3 -6 -4 -9 -12 -6
-17 4 -5 3 -9 -2 -10 -4 0 -16 -2 -26 -4 -9 -2 -15 0 -13 3 2 4 -3 13 -11 21
-13 12 -14 11 -9 -5 5 -15 1 -20 -17 -21 -12 0 -16 1 -9 4 6 3 12 9 12 14 0 4
-7 5 -17 2 -12 -5 -14 -3 -8 7 5 9 4 11 -4 6 -6 -4 -9 -12 -6 -17 3 -5 -1 -6
-9 -3 -9 3 -13 11 -9 18 3 6 1 6 -8 -1 -17 -16 -53 -17 -43 -1 4 7 3 8 -4 4
-6 -4 -8 -14 -5 -23 6 -15 5 -16 -9 -3 -9 8 -14 18 -11 23 6 10 1 8 -20 -8z
m13 -15 c0 -5 -5 -10 -11 -10 -5 0 -7 5 -4 10 3 6 8 10 11 10 2 0 4 -4 4 -10z
m84 2 c3 -5 -1 -9 -9 -9 -8 0 -12 4 -9 9 3 4 7 8 9 8 2 0 6 -4 9 -8z m396 -2
c0 -5 -5 -10 -11 -10 -5 0 -7 5 -4 10 3 6 8 10 11 10 2 0 4 -4 4 -10z m84 2
c3 -5 -1 -9 -9 -9 -8 0 -12 4 -9 9 3 4 7 8 9 8 2 0 6 -4 9 -8z m396 -2 c0 -5
-5 -10 -11 -10 -5 0 -7 5 -4 10 3 6 8 10 11 10 2 0 4 -4 4 -10z m84 2 c3 -5
-1 -9 -9 -9 -8 0 -12 4 -9 9 3 4 7 8 9 8 2 0 6 -4 9 -8z m-949 -181 c-2 -4 3
-8 11 -8 8 0 13 5 10 12 -2 7 6 10 26 7 23 -4 29 -2 23 8 -5 9 -4 11 4 6 9 -6
9 -11 0 -22 -6 -8 -9 -17 -5 -21 3 -3 6 -1 6 6 0 7 10 10 25 7 15 -3 23 -1 20
5 -4 5 -11 7 -16 4 -5 -3 -6 1 -3 10 4 10 10 12 18 7 6 -5 26 -9 44 -8 19 0
36 -3 39 -8 4 -5 2 -6 -3 -3 -6 3 -16 2 -23 -3 -9 -5 -2 -7 18 -6 18 0 30 5
27 12 -3 7 12 10 46 7 36 -2 48 0 42 8 -4 8 -3 9 5 5 9 -6 9 -11 0 -22 -6 -8
-9 -17 -5 -21 3 -3 6 -1 6 5 0 6 10 11 23 10 37 -1 48 2 42 12 -3 6 1 7 9 4 9
-3 14 -9 11 -13 -2 -4 3 -8 11 -8 8 0 13 6 10 13 -3 9 3 11 20 8 16 -3 23 -1
19 6 -10 16 1 12 16 -7 10 -11 10 -14 2 -9 -7 4 -13 3 -13 -3 0 -5 9 -9 20 -8
15 1 19 7 15 22 -3 11 -2 14 1 8 3 -7 17 -13 30 -13 17 0 23 4 18 12 -4 7 -3
8 5 4 9 -6 9 -11 0 -22 -6 -8 -9 -17 -5 -21 3 -3 6 -1 6 6 0 7 10 10 25 7 15
-3 23 -1 20 5 -4 5 -11 7 -16 4 -5 -3 -6 1 -3 10 4 10 10 12 18 7 6 -5 26 -9
44 -8 19 0 36 -3 39 -8 4 -5 2 -6 -3 -3 -6 3 -16 2 -23 -3 -9 -5 -2 -7 18 -6
18 0 30 5 27 12 -3 7 12 10 46 7 36 -2 48 0 42 8 -4 8 -3 9 5 5 9 -6 9 -11 0
-22 -6 -8 -9 -17 -5 -21 3 -3 6 -1 6 5 0 6 10 11 23 10 37 -1 48 2 42 12 -3 6
1 7 9 4 9 -3 14 -9 11 -13 -2 -4 3 -8 11 -8 8 0 13 6 10 13 -3 9 3 11 20 8 16
-3 23 -1 19 6 -10 16 1 12 16 -7 10 -11 10 -14 2 -9 -7 4 -13 3 -13 -3 0 -5 9
-9 20 -8 15 1 19 7 15 22 -3 11 -2 14 1 8 3 -7 17 -13 30 -13 17 0 23 4 18 12
-4 7 -3 8 5 4 9 -6 9 -11 0 -22 -6 -8 -9 -17 -5 -21 3 -3 6 -1 6 6 0 7 10 10
25 7 15 -3 23 -1 20 5 -4 5 -11 7 -16 4 -5 -3 -6 1 -3 10 4 10 10 12 18 7 16
-13 78 -11 95 2 11 8 13 8 8 -1 -4 -6 0 -16 8 -20 9 -5 17 -27 20 -51 2 -26 0
-40 -5 -37 -6 3 -7 -1 -4 -9 3 -9 11 -13 18 -9 6 3 3 -3 -7 -14 -12 -14 -15
-23 -8 -28 15 -9 14 -28 -1 -19 -10 6 -10 4 0 -7 15 -16 16 -33 0 -23 -7 5 -8
3 -2 -7 13 -21 16 -51 4 -44 -6 3 -7 -1 -4 -9 3 -9 11 -13 18 -9 6 3 3 -3 -7
-14 -12 -14 -15 -23 -8 -28 15 -9 14 -28 -1 -19 -10 6 -10 4 0 -7 15 -16 16
-33 0 -23 -7 5 -8 3 -2 -7 13 -21 16 -51 4 -44 -6 3 -7 -1 -4 -9 3 -9 11 -13
18 -9 6 3 3 -3 -7 -14 -12 -14 -15 -23 -8 -28 15 -9 14 -28 -1 -19 -10 6 -10
4 0 -7 15 -16 16 -33 0 -23 -7 5 -8 3 -2 -7 13 -21 16 -51 4 -44 -6 3 -7 -1
-4 -9 3 -9 11 -13 18 -9 6 3 3 -3 -7 -14 -12 -14 -15 -23 -8 -28 15 -9 14 -28
-1 -19 -10 6 -10 4 0 -7 15 -16 16 -33 0 -23 -7 5 -8 3 -2 -7 13 -21 16 -51 4
-44 -6 3 -7 -1 -4 -9 3 -9 11 -13 18 -9 6 3 3 -3 -7 -14 -12 -14 -15 -23 -8
-28 15 -9 14 -28 -1 -19 -10 6 -10 4 0 -7 15 -16 16 -33 0 -23 -7 5 -8 3 -2
-7 13 -21 16 -51 4 -44 -6 3 -7 -1 -4 -9 3 -9 11 -13 18 -9 6 3 3 -3 -7 -14
-12 -14 -15 -23 -8 -28 15 -9 14 -28 -1 -19 -10 6 -10 4 0 -7 15 -16 16 -33 0
-23 -7 5 -8 3 -2 -7 13 -21 16 -51 4 -44 -6 3 -7 -1 -4 -9 3 -9 11 -13 18 -9
6 3 3 -3 -7 -14 -12 -14 -15 -23 -8 -28 15 -9 14 -28 -1 -19 -10 6 -10 4 0 -7
6 -7 12 -17 12 -22 0 -4 -6 -5 -12 -1 -10 5 -10 4 -1 -6 9 -10 10 -17 1 -27
-8 -10 -7 -12 4 -8 9 4 15 0 15 -9 0 -8 -7 -12 -16 -9 -13 4 -13 2 1 -10 15
-12 13 -14 -25 -14 -68 -1 -79 -2 -73 -12 4 -5 -2 -8 -11 -6 -10 1 -24 -3 -32
-9 -11 -8 -13 -8 -7 2 5 8 1 12 -13 12 -10 0 -22 -6 -25 -12 -3 -7 -4 -4 -1 8
4 14 0 21 -9 21 -8 0 -12 -5 -10 -11 4 -9 -39 -12 -109 -7 -5 1 -5 5 -2 11 3
6 -1 7 -9 4 -9 -3 -14 -10 -11 -14 3 -5 1 -11 -4 -14 -5 -4 -13 -1 -17 5 -5 8
-3 9 6 4 9 -5 11 -4 6 4 -4 6 -13 8 -19 4 -7 -4 -23 -6 -36 -4 -16 2 -21 -1
-16 -10 5 -8 4 -10 -3 -5 -6 4 -9 12 -6 20 3 7 -2 13 -10 13 -8 0 -12 -5 -10
-12 3 -7 -7 -10 -31 -7 -19 2 -41 2 -47 -1 -21 -7 -28 -7 -28 1 0 4 4 7 9 7 5
0 12 3 16 7 4 3 -1 5 -12 3 -10 -2 -24 -4 -31 -4 -7 -1 -11 -5 -8 -10 4 -5 -2
-8 -11 -6 -10 1 -24 -3 -32 -9 -11 -8 -13 -8 -7 2 5 8 1 12 -13 12 -10 0 -22
-6 -25 -12 -3 -7 -4 -4 -1 8 4 14 0 21 -9 21 -8 0 -12 -5 -10 -11 4 -9 -39
-12 -109 -7 -5 1 -5 5 -2 11 3 6 -1 7 -9 4 -9 -3 -14 -10 -11 -14 3 -5 1 -11
-4 -14 -5 -4 -13 -1 -17 5 -5 8 -3 9 6 4 9 -5 11 -4 6 4 -4 6 -13 8 -19 4 -7
-4 -23 -6 -36 -4 -16 2 -21 -1 -16 -10 5 -8 4 -10 -3 -5 -6 4 -9 12 -6 20 3 7
-2 13 -10 13 -8 0 -12 -5 -10 -12 3 -7 -7 -10 -31 -7 -19 2 -43 1 -52 -3 -21
-8 -23 -7 -23 3 0 4 4 7 9 7 5 0 12 3 16 7 4 3 -1 5 -12 3 -10 -2 -24 -4 -31
-4 -7 -1 -11 -5 -8 -10 4 -5 -2 -8 -11 -6 -10 1 -24 -3 -32 -9 -11 -8 -13 -8
-7 2 5 8 1 12 -13 12 -10 0 -22 -6 -25 -12 -3 -7 -3 -3 -1 9 5 19 2 21 -34 18
-47 -4 -64 -12 -55 -27 4 -7 2 -8 -4 -4 -6 4 -8 14 -5 23 5 12 3 14 -7 8 -8
-5 -11 -4 -6 3 4 6 14 8 24 5 13 -5 12 -1 -5 19 -27 29 -28 34 -7 42 14 5 15
4 5 -8 -9 -11 -9 -16 0 -22 7 -4 9 -3 5 4 -3 6 -2 13 3 17 6 3 8 12 4 20 -3 8
1 15 8 15 7 0 9 3 6 6 -4 4 -13 1 -21 -5 -11 -9 -16 -9 -22 0 -4 8 -3 9 5 5 8
-6 10 6 8 42 -3 34 0 49 7 46 7 -3 12 9 12 27 1 20 -1 27 -6 18 -5 -7 -6 -17
-3 -23 3 -5 2 -7 -3 -3 -5 3 -8 20 -8 39 1 18 -3 38 -8 44 -5 8 -3 14 7 18 9
3 13 2 10 -3 -3 -5 -1 -12 4 -16 6 -3 8 5 5 20 -3 15 0 25 7 25 7 0 9 3 6 6
-4 4 -13 1 -21 -5 -11 -9 -16 -9 -22 0 -4 8 -3 9 4 5 8 -5 12 1 12 18 0 13 -6
27 -12 30 -7 3 -4 4 7 1 15 -4 21 0 22 15 1 11 -3 20 -8 20 -6 0 -7 -4 -4 -10
10 -16 -1 -11 -16 7 -10 12 -11 15 -1 9 9 -6 11 -1 8 18 -3 17 -1 23 8 20 7
-3 13 2 13 10 0 8 -4 13 -8 11 -4 -3 -10 2 -13 11 -3 8 -2 12 4 9 10 -6 13 5
12 43 -1 12 4 22 10 22 6 0 8 3 5 6 -4 4 -13 1 -21 -5 -11 -9 -16 -9 -22 0 -4
8 -3 9 5 5 8 -6 10 6 8 42 -3 34 0 49 7 46 7 -3 12 9 12 27 1 20 -1 27 -6 18
-5 -7 -6 -17 -3 -23 3 -5 2 -7 -3 -3 -5 3 -8 20 -8 39 1 18 -3 38 -8 44 -5 8
-3 14 7 18 9 3 13 2 10 -3 -3 -5 -1 -12 4 -16 6 -3 8 5 5 20 -3 15 0 25 7 25
7 0 9 3 6 6 -4 4 -13 1 -21 -5 -11 -9 -16 -9 -22 0 -4 8 -3 9 4 5 8 -5 12 1
12 18 0 13 -6 27 -12 30 -7 3 -4 4 7 1 15 -4 21 0 22 15 1 11 -3 20 -8 20 -6
0 -7 -4 -4 -10 10 -16 -1 -11 -16 7 -10 12 -11 15 -1 9 9 -6 11 -1 8 18 -3 17
-1 23 8 20 7 -3 13 2 13 10 0 8 -4 13 -8 11 -4 -3 -10 2 -13 11 -3 8 -2 12 4
9 10 -6 13 5 12 43 -1 12 4 22 10 22 6 0 8 3 5 6 -4 4 -13 1 -21 -5 -11 -9
-16 -9 -22 0 -4 8 -3 9 5 5 8 -6 10 6 8 42 -3 36 -1 49 8 46 6 -3 12 2 12 10
0 8 -5 13 -10 9 -5 -3 -6 4 -2 17 5 15 3 20 -3 16 -6 -3 -13 -2 -16 3 -12 19
17 24 31 6 7 -11 13 -14 13 -7 0 6 -10 21 -22 32 -20 18 -20 20 -4 14 15 -6
17 -4 11 7 -8 12 -6 12 8 0 9 -7 15 -17 12 -20z m365 10 c0 -4 -6 -8 -14 -8
-8 0 -12 6 -9 14 5 13 23 9 23 -6z m480 0 c0 -4 -6 -8 -14 -8 -8 0 -12 6 -9
14 5 13 23 9 23 -6z m-1040 -91 c0 -5 -5 -10 -11 -10 -5 0 -7 5 -4 10 3 6 8
10 11 10 2 0 4 -4 4 -10z m-3 -85 c0 -8 -4 -12 -9 -9 -5 3 -6 10 -3 15 9 13
12 11 12 -6z m170 -50 c0 -17 -13 -20 -21 -6 -4 5 0 12 6 14 7 3 13 6 14 6 0
1 1 -6 1 -14z m-167 -345 c0 -5 -5 -10 -11 -10 -5 0 -7 5 -4 10 3 6 8 10 11
10 2 0 4 -4 4 -10z m-3 -85 c0 -8 -4 -12 -9 -9 -5 3 -6 10 -3 15 9 13 12 11
12 -6z m170 -50 c0 -17 -13 -20 -21 -6 -4 5 0 12 6 14 7 3 13 6 14 6 0 1 1 -6
1 -14z m-167 -345 c0 -5 -5 -10 -11 -10 -5 0 -7 5 -4 10 3 6 8 10 11 10 2 0 4
-4 4 -10z m-3 -85 c0 -8 -4 -12 -9 -9 -5 3 -6 10 -3 15 9 13 12 11 12 -6z
m243 -126 c0 -6 -4 -8 -9 -4 -5 3 -12 1 -16 -4 -3 -6 -13 -7 -21 -4 -10 3 -12
8 -5 12 17 11 51 11 51 0z m1109 -3 c11 -14 6 -15 -27 -7 -4 1 8 21 12 21 2 0
9 -6 15 -14z m58 1 c2 -3 -3 -7 -11 -10 -8 -3 -20 0 -26 8 -10 12 -8 13 10 10
13 -2 25 -6 27 -8z"/>
<path d="M1540 2620 c0 -5 5 -10 11 -10 5 0 7 5 4 10 -3 6 -8 10 -11 10 -2 0
-4 -4 -4 -10z"/>
<path d="M2020 2620 c0 -5 5 -10 11 -10 5 0 7 5 4 10 -3 6 -8 10 -11 10 -2 0
-4 -4 -4 -10z"/>
<path d="M2500 2620 c0 -5 5 -10 11 -10 5 0 7 5 4 10 -3 6 -8 10 -11 10 -2 0
-4 -4 -4 -10z"/>
<path d="M2539 2619 c-10 -6 -6 -8 11 -5 14 2 32 -1 40 -7 12 -9 13 -9 3 3
-16 17 -36 21 -54 9z"/>
<path d="M1375 2130 c3 -5 8 -10 11 -10 2 0 4 5 4 10 0 6 -5 10 -11 10 -5 0
-7 -4 -4 -10z"/>
<path d="M1375 1650 c3 -5 8 -10 11 -10 2 0 4 5 4 10 0 6 -5 10 -11 10 -5 0
-7 -4 -4 -10z"/>
<path d="M1490 1386 c0 -2 7 -7 16 -10 8 -3 12 -2 9 4 -6 10 -25 14 -25 6z"/>
<path d="M1730 1386 c0 -2 7 -7 16 -10 8 -3 12 -2 9 4 -6 10 -25 14 -25 6z"/>
<path d="M1970 1386 c0 -2 7 -7 16 -10 8 -3 12 -2 9 4 -6 10 -25 14 -25 6z"/>
<path d="M2210 1386 c0 -2 7 -7 16 -10 8 -3 12 -2 9 4 -6 10 -25 14 -25 6z"/>
<path d="M2450 1386 c0 -2 7 -7 16 -10 8 -3 12 -2 9 4 -6 10 -25 14 -25 6z"/>
<path d="M1501 2814 c0 -11 3 -14 6 -6 3 7 2 16 -1 19 -3 4 -6 -2 -5 -13z"/>
<path d="M1741 2814 c0 -11 3 -14 6 -6 3 7 2 16 -1 19 -3 4 -6 -2 -5 -13z"/>
<path d="M1981 2814 c0 -11 3 -14 6 -6 3 7 2 16 -1 19 -3 4 -6 -2 -5 -13z"/>
<path d="M2221 2814 c0 -11 3 -14 6 -6 3 7 2 16 -1 19 -3 4 -6 -2 -5 -13z"/>
<path d="M2461 2814 c0 -11 3 -14 6 -6 3 7 2 16 -1 19 -3 4 -6 -2 -5 -13z"/>
<path d="M1670 2810 c0 -5 5 -10 10 -10 6 0 10 5 10 10 0 6 -4 10 -10 10 -5 0
-10 -4 -10 -10z"/>
<path d="M2150 2810 c0 -5 5 -10 10 -10 6 0 10 5 10 10 0 6 -4 10 -10 10 -5 0
-10 -4 -10 -10z"/>
<path d="M1180 2640 c0 -5 5 -10 10 -10 6 0 10 5 10 10 0 6 -4 10 -10 10 -5 0
-10 -4 -10 -10z"/>
<path d="M2790 2619 c0 -5 5 -7 10 -4 6 3 10 8 10 11 0 2 -4 4 -10 4 -5 0 -10
-5 -10 -11z"/>
<path d="M1178 2573 c7 -3 16 -2 19 1 4 3 -2 6 -13 5 -11 0 -14 -3 -6 -6z"/>
<path d="M1178 2333 c7 -3 16 -2 19 1 4 3 -2 6 -13 5 -11 0 -14 -3 -6 -6z"/>
<path d="M2790 2299 c0 -5 5 -7 10 -4 6 3 10 8 10 11 0 2 -4 4 -10 4 -5 0 -10
-5 -10 -11z"/>
<path d="M1180 2160 c0 -5 5 -10 10 -10 6 0 10 5 10 10 0 6 -4 10 -10 10 -5 0
-10 -4 -10 -10z"/>
<path d="M807 2127 c2 -17 5 -40 6 -49 1 -9 5 -15 9 -12 9 6 6 44 -4 44 -4 0
-5 9 -3 20 2 11 0 22 -4 25 -5 2 -7 -10 -4 -28z"/>
<path d="M1178 2093 c7 -3 16 -2 19 1 4 3 -2 6 -13 5 -11 0 -14 -3 -6 -6z"/>
<path d="M2790 1979 c0 -5 5 -7 10 -4 6 3 10 8 10 11 0 2 -4 4 -10 4 -5 0 -10
-5 -10 -11z"/>
<path d="M812 1954 c-7 -8 -8 -14 -3 -14 10 0 25 19 20 25 -2 1 -10 -3 -17
-11z"/>
<path d="M1178 1853 c7 -3 16 -2 19 1 4 3 -2 6 -13 5 -11 0 -14 -3 -6 -6z"/>
<path d="M812 1834 c-7 -8 -8 -14 -3 -14 10 0 25 19 20 25 -2 1 -10 -3 -17
-11z"/>
<path d="M1180 1680 c0 -5 5 -10 10 -10 6 0 10 5 10 10 0 6 -4 10 -10 10 -5 0
-10 -4 -10 -10z"/>
<path d="M2790 1659 c0 -5 5 -7 10 -4 6 3 10 8 10 11 0 2 -4 4 -10 4 -5 0 -10
-5 -10 -11z"/>
<path d="M812 1634 c-7 -8 -8 -14 -3 -14 10 0 25 19 20 25 -2 1 -10 -3 -17
-11z"/>
<path d="M1178 1613 c7 -3 16 -2 19 1 4 3 -2 6 -13 5 -11 0 -14 -3 -6 -6z"/>
<path d="M812 1514 c-7 -8 -8 -14 -3 -14 10 0 25 19 20 25 -2 1 -10 -3 -17
-11z"/>
<path d="M2795 1320 c-3 -5 -1 -10 4 -10 6 0 11 5 11 10 0 6 -2 10 -4 10 -3 0
-8 -4 -11 -10z"/>
<path d="M1175 1280 c-3 -6 1 -7 9 -4 18 7 21 14 7 14 -6 0 -13 -4 -16 -10z"/>
<path d="M1715 1201 c-3 -5 -2 -12 3 -15 5 -3 9 1 9 9 0 17 -3 19 -12 6z"/>
<path d="M1875 1201 c-3 -5 -2 -12 3 -15 5 -3 9 1 9 9 0 17 -3 19 -12 6z"/>
<path d="M2170 1199 c0 -5 5 -7 10 -4 6 3 10 8 10 11 0 2 -4 4 -10 4 -5 0 -10
-5 -10 -11z"/>
<path d="M2075 3391 c-3 -6 -14 -8 -25 -6 -12 2 -18 0 -14 -6 3 -6 9 -8 12 -5
3 3 12 0 21 -6 9 -7 13 -8 9 -4 -4 5 -3 15 3 23 6 7 9 13 6 13 -3 0 -8 -4 -12
-9z"/>
<path d="M2195 3391 c-3 -6 -14 -8 -25 -6 -12 2 -18 0 -14 -6 3 -6 9 -8 12 -5
3 3 12 0 21 -6 9 -7 13 -8 9 -4 -4 5 -3 15 3 23 6 7 9 13 6 13 -3 0 -8 -4 -12
-9z"/>
<path d="M2315 3391 c-3 -6 -14 -8 -25 -6 -12 2 -18 0 -14 -6 3 -6 9 -8 12 -5
3 3 12 0 21 -6 9 -7 13 -8 9 -4 -4 5 -3 15 3 23 6 7 9 13 6 13 -3 0 -8 -4 -12
-9z"/>
<path d="M2435 3391 c-3 -6 -14 -8 -25 -6 -12 2 -18 0 -14 -6 3 -6 9 -8 12 -5
3 3 12 0 21 -6 9 -7 13 -8 9 -4 -4 5 -3 15 3 23 6 7 9 13 6 13 -3 0 -8 -4 -12
-9z"/>
<path d="M2555 3391 c-3 -6 -14 -8 -25 -6 -12 2 -18 0 -14 -6 3 -6 9 -8 12 -5
3 3 12 0 21 -6 9 -7 13 -8 9 -4 -4 5 -3 15 3 23 6 7 9 13 6 13 -3 0 -8 -4 -12
-9z"/>
<path d="M2675 3391 c-3 -6 -14 -8 -25 -6 -12 2 -18 0 -14 -6 3 -6 9 -8 12 -5
3 3 12 0 21 -6 9 -7 13 -8 9 -4 -4 5 -3 15 3 23 6 7 9 13 6 13 -3 0 -8 -4 -12
-9z"/>
<path d="M2795 3391 c-3 -6 -14 -8 -25 -6 -12 2 -18 0 -14 -6 3 -6 9 -8 12 -5
3 3 12 0 21 -6 9 -7 13 -8 9 -4 -4 5 -3 15 3 23 6 7 9 13 6 13 -3 0 -8 -4 -12
-9z"/>
<path d="M2915 3391 c-3 -6 -14 -8 -25 -6 -12 2 -18 0 -14 -6 3 -6 9 -8 12 -5
3 3 12 0 21 -6 9 -7 13 -8 9 -4 -4 5 -3 15 3 23 6 7 9 13 6 13 -3 0 -8 -4 -12
-9z"/>
<path d="M3035 3391 c-3 -6 -14 -8 -25 -6 -12 2 -18 0 -14 -6 3 -6 9 -8 12 -5
3 3 12 0 21 -6 9 -7 13 -8 9 -4 -4 5 -3 15 3 23 6 7 9 13 6 13 -3 0 -8 -4 -12
-9z"/>
<path d="M1196 3379 c4 -8 30 -6 38 2 3 3 -5 5 -19 5 -13 0 -22 -3 -19 -7z"/>
<path d="M1295 3380 c3 -5 8 -10 11 -10 2 0 4 5 4 10 0 6 -5 10 -11 10 -5 0
-7 -4 -4 -10z"/>
<path d="M1375 3380 c3 -5 8 -10 11 -10 2 0 4 5 4 10 0 6 -5 10 -11 10 -5 0
-7 -4 -4 -10z"/>
<path d="M1455 3380 c3 -5 8 -10 11 -10 2 0 4 5 4 10 0 6 -5 10 -11 10 -5 0
-7 -4 -4 -10z"/>
<path d="M1535 3380 c3 -5 8 -10 11 -10 2 0 4 5 4 10 0 6 -5 10 -11 10 -5 0
-7 -4 -4 -10z"/>
<path d="M1615 3380 c3 -5 8 -10 11 -10 2 0 4 5 4 10 0 6 -5 10 -11 10 -5 0
-7 -4 -4 -10z"/>
<path d="M1695 3380 c3 -5 8 -10 11 -10 2 0 4 5 4 10 0 6 -5 10 -11 10 -5 0
-7 -4 -4 -10z"/>
<path d="M1775 3380 c3 -5 8 -10 11 -10 2 0 4 5 4 10 0 6 -5 10 -11 10 -5 0
-7 -4 -4 -10z"/>
<path d="M1855 3380 c3 -5 8 -10 11 -10 2 0 4 5 4 10 0 6 -5 10 -11 10 -5 0
-7 -4 -4 -10z"/>
<path d="M3117 3377 c2 -4 8 -5 13 -2 5 3 11 1 15 -5 4 -6 11 -8 16 -5 18 12
8 23 -20 21 -16 0 -27 -4 -24 -9z"/>
<path d="M3215 3380 c3 -5 8 -10 11 -10 2 0 4 5 4 10 0 6 -5 10 -11 10 -5 0
-7 -4 -4 -10z"/>
<path d="M660 3361 c0 -7 -5 -9 -12 -5 -7 5 -8 3 -3 -5 5 -9 10 -10 18 -2 6 6
8 14 4 18 -4 3 -7 1 -7 -6z"/>
<path d="M614 3233 c2 -10 -2 -25 -8 -33 -9 -13 -9 -13 5 -3 9 7 20 9 25 5 4
-4 2 2 -6 12 -8 11 -13 21 -12 23 2 3 1 7 -1 10 -3 3 -4 -3 -3 -14z"/>
<path d="M614 3113 c2 -10 -2 -25 -8 -33 -9 -13 -9 -13 5 -3 9 7 20 9 25 5 4
-4 2 2 -6 12 -8 11 -13 21 -12 23 2 3 1 7 -1 10 -3 3 -4 -3 -3 -14z"/>
<path d="M3375 3056 c-18 -13 -18 -15 -2 -39 20 -31 22 -41 5 -31 -7 4 -8 3
-4 -5 11 -17 29 -2 21 18 -12 29 -13 46 -2 59 13 16 5 15 -18 -2z"/>
<path d="M614 2993 c2 -10 -2 -25 -8 -33 -9 -13 -9 -13 5 -3 9 7 20 9 25 5 4
-4 2 2 -6 12 -8 11 -13 21 -12 23 2 3 1 7 -1 10 -3 3 -4 -3 -3 -14z"/>
<path d="M132 2973 c-6 -3 -9 -10 -6 -16 5 -8 2 -8 -7 1 -17 15 -43 16 -33 0
5 -7 3 -8 -7 -2 -23 14 -37 13 -51 -4 -11 -15 -11 -15 4 -4 13 11 18 11 24 0
4 -7 3 -10 -1 -5 -5 4 -17 -1 -28 -10 -11 -10 -17 -12 -13 -5 4 6 2 12 -4 12
-7 0 -10 -20 -9 -55 2 -39 6 -55 16 -55 8 0 11 5 7 12 -4 7 -3 8 5 4 6 -4 9
-12 6 -17 -4 -5 1 -17 11 -26 16 -16 16 -16 9 6 -7 22 -6 22 19 6 14 -10 23
-22 19 -28 -3 -6 -1 -7 6 -3 6 4 9 12 6 17 -4 5 -3 9 2 10 4 0 16 2 26 4 9 2
15 -1 11 -6 -3 -5 -10 -7 -15 -4 -5 3 -6 -1 -3 -9 3 -9 11 -16 17 -16 6 0 8 3
4 6 -3 3 0 12 6 19 10 10 14 9 24 -9 l12 -21 1 23 c0 12 5 22 10 22 6 0 9 -3
9 -7 -3 -18 2 -33 10 -33 5 0 7 10 4 23 -5 22 -5 22 11 2 12 -15 18 -17 24 -7
10 15 56 26 47 11 -4 -5 -10 -7 -15 -4 -5 3 -12 0 -16 -6 -4 -8 -3 -9 4 -5 7
4 12 2 12 -3 0 -6 5 -11 12 -11 6 0 9 3 5 6 -3 3 0 12 6 19 10 10 14 9 24 -9
l12 -21 1 23 c0 12 4 22 10 22 5 0 9 -3 9 -7 -3 -18 2 -33 10 -33 5 0 7 10 4
23 -5 22 -5 22 11 2 12 -14 19 -16 22 -7 8 18 27 15 20 -4 -3 -9 -2 -12 5 -8
6 3 8 15 6 26 -5 19 -5 19 15 1 12 -10 18 -13 14 -6 -6 12 18 73 30 73 2 0 -2
-13 -11 -30 -13 -26 -13 -29 0 -24 8 3 12 10 9 15 -3 5 0 9 7 9 7 0 9 3 6 6
-3 4 -2 16 4 27 9 15 8 18 -2 12 -9 -6 -11 -3 -6 9 5 11 3 15 -5 10 -8 -5 -9
-2 -5 10 5 14 3 17 -8 13 -18 -7 -30 9 -13 17 7 3 2 3 -11 0 -13 -4 -21 -2
-18 3 4 5 0 10 -8 10 -8 0 -11 -5 -8 -11 4 -6 -4 -2 -17 9 -13 11 -20 15 -16
8 5 -9 -3 -10 -29 -6 -26 4 -35 2 -36 -8 0 -8 -4 -5 -9 6 -5 11 -9 15 -9 9 -1
-7 -12 -9 -27 -6 -16 3 -30 -1 -35 -9 -7 -11 -9 -9 -9 6 0 13 -3 16 -8 8 -5
-7 -13 -9 -21 -3 -18 11 -43 1 -34 -14 4 -6 -1 -5 -10 3 -14 11 -17 11 -18 0
0 -10 -2 -9 -7 2 -4 9 -13 14 -20 12z"/>
<path d="M3601 2974 c-1 -7 -9 -11 -18 -10 -11 0 -17 -5 -15 -14 1 -10 -2 -9
-13 4 -12 16 -15 17 -15 4 0 -10 -8 -14 -24 -13 -18 2 -23 -1 -19 -11 3 -8 9
-11 14 -8 15 9 10 -3 -8 -17 -10 -8 -14 -9 -10 -2 4 6 3 14 -2 17 -5 4 -12 2
-15 -3 -4 -5 -2 -12 3 -16 6 -3 8 -12 5 -19 -3 -8 -1 -17 5 -21 7 -4 9 1 5 12
-4 14 -4 15 4 4 5 -7 7 -21 5 -31 -5 -17 11 -34 32 -35 6 -1 9 -6 8 -11 -1 -6
5 -11 12 -11 11 0 12 4 4 13 -7 8 -6 14 2 20 7 4 9 3 6 -3 -4 -6 0 -14 9 -17
14 -5 14 -9 3 -24 -13 -15 -12 -16 3 -4 9 8 14 21 12 30 -5 15 -4 15 9 -1 19
-23 58 -32 50 -10 -4 10 -8 11 -13 3 -5 -8 -9 -7 -13 3 -4 12 0 15 15 12 12
-3 25 -9 28 -16 5 -7 12 -5 24 6 9 9 16 11 16 5 0 -6 5 -8 12 -4 7 4 8 3 4 -5
-4 -6 -11 -9 -16 -6 -5 3 -11 1 -15 -4 -9 -15 33 -4 50 12 8 8 12 17 10 21 -3
3 -2 3 3 0 4 -3 8 -10 8 -15 1 -5 2 -13 3 -19 0 -5 5 -10 10 -10 5 0 7 10 4
23 -4 21 -4 21 12 -3 l16 -25 -5 25 -5 25 19 -22 c14 -18 19 -20 23 -9 3 8 1
17 -6 19 -7 3 -2 4 10 4 18 -1 20 -4 11 -21 -10 -18 -8 -18 17 3 19 14 32 18
38 12 7 -7 15 -5 24 7 8 9 12 11 8 5 -4 -8 0 -13 10 -13 9 0 13 5 10 10 -3 6
1 10 10 10 10 0 13 -5 9 -12 -4 -7 -3 -8 4 -4 9 5 9 13 1 28 -8 15 -8 19 0 13
8 -4 11 9 10 44 -1 30 -6 48 -12 44 -6 -3 -16 2 -24 12 -7 11 -13 13 -13 7 0
-19 -20 -14 -21 6 0 9 -3 12 -5 6 -3 -6 -16 -9 -30 -6 -16 3 -30 -1 -35 -9 -7
-11 -9 -10 -9 5 0 20 0 20 -16 0 -8 -10 -13 -14 -10 -8 9 19 -22 25 -39 8 -10
-10 -15 -11 -15 -3 0 8 -4 8 -15 -1 -13 -11 -14 -10 -8 6 7 19 6 19 -21 0 -16
-10 -26 -14 -22 -8 3 5 -1 13 -10 16 -8 3 -12 2 -9 -4 3 -5 -9 -6 -30 -3 -26
4 -35 2 -36 -8 0 -8 -4 -5 -9 6 -5 11 -9 15 -9 9z m-76 -134 c3 -5 1 -10 -4
-10 -6 0 -11 5 -11 10 0 6 2 10 4 10 3 0 8 -4 11 -10z"/>
<path d="M614 2873 c2 -10 -2 -25 -8 -33 -9 -13 -9 -13 5 -3 9 7 20 9 25 5 4
-4 2 2 -6 12 -8 11 -13 21 -12 23 2 3 1 7 -1 10 -3 3 -4 -3 -3 -14z"/>
<path d="M3895 2799 c-4 -6 -5 -12 -2 -15 2 -3 7 2 10 11 7 17 1 20 -8 4z"/>
<path d="M614 2753 c2 -10 -2 -25 -8 -33 -9 -13 -9 -13 5 -3 9 7 20 9 25 5 4
-4 2 2 -6 12 -8 11 -13 21 -12 23 2 3 1 7 -1 10 -3 3 -4 -3 -3 -14z"/>
<path d="M614 2633 c2 -10 -2 -25 -8 -33 -9 -13 -9 -13 5 -3 9 7 20 9 25 5 4
-4 2 2 -6 12 -8 11 -13 21 -12 23 2 3 1 7 -1 10 -3 3 -4 -3 -3 -14z"/>
<path d="M101 2535 c-1 -17 -3 -18 -11 -5 -7 11 -10 11 -10 2 0 -7 -4 -10 -10
-7 -5 3 -10 2 -10 -4 0 -6 -8 -7 -17 -4 -12 5 -15 2 -10 -10 3 -9 3 -16 -1
-16 -27 4 -33 -4 -30 -41 1 -32 5 -39 17 -35 9 3 12 3 8 -1 -4 -4 -2 -13 4
-20 7 -8 6 -14 -2 -20 -8 -4 -9 -3 -5 4 5 8 2 10 -8 6 -12 -5 -13 -9 -3 -19 7
-7 14 -9 15 -4 2 5 11 9 19 9 9 0 13 -6 9 -15 -3 -8 -1 -15 4 -15 6 0 10 8 10
18 1 14 2 15 9 2 8 -12 35 -15 148 -14 76 0 151 4 167 8 15 4 25 3 22 -2 -3
-5 1 -9 8 -9 9 0 12 7 8 16 -4 12 0 11 18 -4 13 -11 20 -14 15 -6 -6 11 -4 13
8 8 9 -3 19 -1 23 5 4 7 3 8 -4 4 -7 -4 -12 -2 -12 5 0 8 -4 9 -13 0 -10 -8
-14 -7 -14 3 0 8 8 13 19 11 10 -2 18 1 18 6 0 6 6 7 13 3 7 -5 6 0 -3 11 -12
15 -12 17 -1 10 11 -6 13 -4 8 8 -4 12 -1 17 11 17 13 0 14 2 3 9 -8 5 -10 14
-6 21 5 9 4 11 -3 6 -7 -4 -12 -1 -12 8 0 10 -6 13 -17 9 -16 -6 -15 -3 2 18
13 15 14 19 3 11 -13 -10 -17 -10 -21 0 -4 10 -6 10 -6 0 -1 -10 -4 -10 -16 2
-10 9 -25 13 -43 9 -38 -8 -117 -7 -130 1 -6 3 -13 -2 -15 -11 -4 -17 -5 -17
-6 0 0 10 -6 15 -12 12 -5 -4 -37 -8 -69 -8 -45 -2 -60 2 -64 13 -2 10 -4 8
-5 -5z m113 -173 c3 -5 -1 -9 -9 -9 -8 0 -15 4 -15 9 0 4 4 8 9 8 6 0 12 -4
15 -8z"/>
<path d="M176 2542 c-3 -5 1 -9 9 -9 8 0 12 4 9 9 -3 4 -7 8 -9 8 -2 0 -6 -4
-9 -8z"/>
<path d="M347 2539 c7 -7 15 -10 18 -7 3 3 -2 9 -12 12 -14 6 -15 5 -6 -5z"/>
<path d="M3630 2538 c0 -10 -11 -12 -39 -10 -31 3 -42 0 -56 -20 l-17 -23 7
25 c5 19 4 22 -4 10 -6 -8 -11 -23 -11 -32 0 -12 -6 -16 -21 -13 -17 4 -19 2
-9 -10 15 -18 24 -20 14 -3 -4 7 -3 8 5 4 6 -4 9 -12 6 -17 -4 -5 -3 -15 2
-21 11 -19 12 -37 3 -43 -5 -3 -7 3 -5 14 2 11 -4 26 -13 33 -15 11 -15 11 -6
-2 6 -8 10 -23 9 -32 -2 -9 4 -23 13 -30 12 -10 14 -10 8 0 -4 6 -2 12 3 12 6
0 11 -8 11 -17 1 -17 1 -17 11 0 10 18 12 18 32 -4 20 -21 21 -21 28 -3 6 14
8 15 9 4 2 -8 2 -18 2 -21 -1 -3 5 -6 12 -6 7 0 13 6 13 13 0 7 -5 10 -10 7
-6 -3 -7 -1 -4 5 8 12 24 11 51 -4 10 -7 34 -8 57 -4 31 6 42 4 50 -9 9 -14
10 -13 5 3 -6 16 -4 17 9 6 12 -10 15 -9 16 6 0 18 1 18 9 -1 5 -11 9 -14 9
-8 1 9 8 10 25 3 16 -6 30 -5 42 4 21 14 56 18 48 5 -2 -5 -12 -6 -22 -3 -14
5 -15 4 -2 -5 10 -7 19 -6 31 5 19 17 33 19 23 2 -4 -7 -3 -8 4 -4 6 4 9 13 6
21 -4 8 -10 12 -15 9 -5 -3 -6 2 -3 11 6 14 8 14 19 -2 12 -15 13 -8 13 54 -1
70 -1 71 -23 63 -19 -7 -27 -4 -40 13 -9 12 -13 16 -10 10 9 -19 -6 -16 -21 5
-11 13 -13 13 -9 1 5 -13 -2 -15 -37 -12 -24 2 -50 4 -58 5 -8 0 -20 5 -27 10
-7 6 -14 4 -19 -3 -4 -7 -3 -9 4 -5 6 3 13 2 17 -3 3 -6 -4 -8 -17 -5 -13 3
-30 6 -38 6 -8 0 -22 6 -30 12 -12 9 -13 8 -3 -4 9 -13 7 -15 -17 -15 -15 0
-26 3 -24 7 2 4 0 9 -6 13 -5 3 -10 0 -10 -7z m260 -174 c0 -8 -19 -13 -24 -6
-3 5 1 9 9 9 8 0 15 -2 15 -3z"/>
<path d="M3850 2546 c0 -2 7 -7 16 -10 8 -3 12 -2 9 4 -6 10 -25 14 -25 6z"/>
<path d="M614 2513 c2 -10 -2 -25 -8 -33 -9 -13 -9 -13 5 -3 9 7 20 9 25 5 4
-4 2 2 -6 12 -8 11 -13 21 -12 23 2 3 1 7 -1 10 -3 3 -4 -3 -3 -14z"/>
<path d="M3950 2519 c0 -5 5 -7 10 -4 6 3 10 8 10 11 0 2 -4 4 -10 4 -5 0 -10
-5 -10 -11z"/>
<path d="M614 2393 c2 -10 -2 -25 -8 -33 -9 -13 -9 -13 5 -3 9 7 20 9 25 5 4
-4 2 2 -6 12 -8 11 -13 21 -12 23 2 3 1 7 -1 10 -3 3 -4 -3 -3 -14z"/>
<path d="M3551 2354 c0 -11 3 -14 6 -6 3 7 2 16 -1 19 -3 4 -6 -2 -5 -13z"/>
<path d="M614 2273 c2 -10 -2 -25 -8 -33 -9 -13 -9 -13 5 -3 9 7 20 9 25 5 4
-4 2 2 -6 12 -8 11 -13 21 -12 23 2 3 1 7 -1 10 -3 3 -4 -3 -3 -14z"/>
<path d="M614 2139 c-2 -28 9 -38 21 -20 3 5 1 12 -5 16 -6 4 -8 10 -5 15 3 5
2 11 -2 13 -5 3 -9 -8 -9 -24z"/>
<path d="M82 2083 c-7 -10 -10 -11 -6 -3 5 11 2 10 -13 -3 -21 -18 -22 -18
-33 0 -10 16 -11 16 -6 -5 3 -15 -1 -25 -10 -29 -19 -7 -16 -120 3 -120 7 0
11 5 10 10 -1 5 4 11 11 13 7 1 8 0 3 -2 -12 -6 -3 -34 11 -34 5 0 6 6 2 13
-5 7 -1 7 10 -2 20 -17 66 -21 66 -6 0 5 5 3 10 -5 8 -12 10 -12 10 -1 0 11 3
11 16 0 9 -7 18 -9 22 -3 9 11 53 14 46 2 -3 -4 0 -8 5 -8 6 0 11 3 11 8 0 4
11 7 24 7 13 0 22 -3 19 -7 -2 -5 1 -8 6 -8 6 0 11 3 11 8 0 11 94 9 102 -3 5
-6 8 -4 8 5 0 13 1 13 10 0 6 -9 10 -11 10 -3 0 7 7 10 17 6 12 -5 15 -2 10
10 -4 12 -2 14 11 10 14 -6 15 -4 4 9 -11 13 -10 16 5 14 12 -1 17 5 15 18 -2
12 1 15 8 11 9 -6 9 -2 0 15 -7 13 -8 20 -2 16 6 -3 14 -2 17 4 4 6 3 10 -2 9
-31 -5 -42 16 -18 33 6 4 -5 6 -22 3 -23 -2 -36 1 -43 13 -5 9 -10 13 -10 9 0
-4 -9 -3 -20 3 -11 6 -20 7 -20 3 0 -4 -11 -9 -25 -9 -14 -1 -23 2 -20 6 3 5
-9 5 -27 -1 -18 -5 -34 -9 -36 -9 -2 0 -1 4 3 9 3 6 -7 6 -27 0 -18 -5 -34 -9
-36 -9 -2 0 -1 4 3 9 3 6 -7 6 -27 0 -18 -5 -34 -9 -36 -9 -2 0 -1 4 3 9 3 6
-7 6 -27 0 -41 -11 -41 -11 -33 1 11 17 -10 11 -23 -7z"/>
<path d="M3547 2089 c9 -11 7 -14 -13 -15 -27 -2 -54 -21 -54 -38 0 -8 2 -8 8
0 13 20 50 35 57 24 4 -6 3 -10 -2 -9 -21 4 -34 -2 -27 -13 4 -7 3 -8 -5 -4
-8 5 -10 0 -7 -18 3 -14 0 -26 -6 -26 -5 0 -8 7 -5 14 4 10 1 13 -9 9 -11 -4
-12 -9 -3 -19 6 -7 8 -18 4 -24 -3 -5 1 -13 10 -16 13 -5 13 -9 3 -23 -11 -14
-11 -14 2 -5 8 5 20 10 25 9 20 -3 45 -17 41 -24 -2 -3 7 -6 20 -6 13 0 24 5
24 10 0 6 5 3 10 -5 7 -11 10 -11 10 -2 0 10 5 10 20 2 15 -8 20 -8 20 2 0 9
3 9 10 -2 5 -8 10 -10 10 -5 0 6 11 10 24 10 13 0 22 -3 19 -7 -2 -5 1 -8 6
-8 6 0 11 4 11 9 0 6 12 6 30 1 17 -5 30 -5 30 0 0 5 13 5 30 0 18 -5 30 -5
30 0 0 6 10 6 23 1 13 -5 30 -5 37 -1 8 5 18 6 24 3 5 -4 7 0 4 8 -4 10 1 15
13 15 12 0 15 -4 9 -11 -6 -8 -5 -12 3 -12 8 0 13 24 14 78 2 65 -1 78 -15 85
-26 11 -43 13 -37 5 2 -4 -2 -8 -10 -8 -8 0 -11 5 -8 10 3 5 0 7 -8 5 -8 -3
-22 -1 -31 4 -10 5 -18 5 -18 0 0 -11 -73 -9 -82 3 -5 7 -8 6 -8 0 0 -14 -70
-13 -70 0 0 6 -3 6 -8 0 -9 -14 -65 -13 -74 0 -5 7 -8 6 -8 -1 0 -11 -51 -10
-72 2 -10 6 -11 5 -1 -7z m442 -43 c-3 -3 -11 5 -18 17 -13 21 -12 21 5 5 10
-10 16 -20 13 -22z m-465 -95 c-4 -3 -9 0 -11 7 -3 6 -10 9 -15 6 -7 -4 -8 -2
-4 5 6 9 11 9 22 0 8 -6 12 -15 8 -18z"/>
<path d="M0 2065 c0 -8 4 -15 10 -15 5 0 7 7 4 15 -4 8 -8 15 -10 15 -2 0 -4
-7 -4 -15z"/>
<path d="M610 1980 c0 -5 5 -10 11 -10 5 0 7 5 4 10 -3 6 -8 10 -11 10 -2 0
-4 -4 -4 -10z"/>
<path d="M3376 1978 c3 -4 11 -5 19 -1 21 7 19 12 -4 10 -11 0 -18 -5 -15 -9z"/>
<path d="M3533 1915 c0 -8 4 -12 9 -9 5 3 6 10 3 15 -9 13 -12 11 -12 -6z"/>
<path d="M610 1900 c0 -5 5 -10 11 -10 5 0 7 5 4 10 -3 6 -8 10 -11 10 -2 0
-4 -4 -4 -10z"/>
<path d="M610 1820 c0 -5 5 -10 11 -10 5 0 7 5 4 10 -3 6 -8 10 -11 10 -2 0
-4 -4 -4 -10z"/>
<path d="M3375 1776 c-18 -13 -18 -15 -2 -39 20 -31 22 -41 5 -31 -7 4 -8 3
-4 -5 11 -17 29 -2 21 18 -12 29 -13 46 -2 59 13 16 5 15 -18 -2z"/>
<path d="M610 1740 c0 -5 5 -10 11 -10 5 0 7 5 4 10 -3 6 -8 10 -11 10 -2 0
-4 -4 -4 -10z"/>
<path d="M610 1660 c0 -5 5 -10 11 -10 5 0 7 5 4 10 -3 6 -8 10 -11 10 -2 0
-4 -4 -4 -10z"/>
<path d="M90 1643 c0 -15 -2 -16 -10 -3 -8 13 -10 12 -10 -2 0 -10 -4 -18 -10
-18 -6 0 -9 5 -7 11 1 6 -5 14 -13 16 -13 4 -13 3 0 -6 14 -10 7 -16 -13 -12
-5 1 -5 -4 -1 -10 5 -8 2 -10 -8 -7 -12 5 -15 -5 -15 -53 0 -51 3 -62 21 -71
20 -11 20 -10 6 8 -14 17 -13 18 1 7 9 -7 19 -10 23 -6 4 4 4 0 1 -8 -4 -12 0
-16 17 -15 13 1 28 5 34 9 6 3 14 3 18 0 12 -12 40 -12 48 0 6 9 8 9 8 -1 0
-10 11 -12 40 -8 29 4 39 2 34 -6 -5 -7 -3 -8 7 -2 17 10 146 12 176 2 18 -6
21 -4 16 9 -5 13 -2 15 15 11 12 -4 22 -2 22 4 0 5 4 7 8 4 4 -2 9 5 9 16 2
19 1 19 -11 3 -10 -14 -15 -15 -21 -5 -5 9 -4 11 3 6 11 -7 17 6 13 27 -1 5 9
6 21 3 13 -3 17 -3 11 0 -7 3 -14 22 -14 42 -1 21 -3 29 -6 20 -5 -21 -19 -23
-29 -6 -4 7 -3 8 4 4 7 -4 12 -3 12 2 0 6 -7 13 -16 16 -9 3 -12 11 -8 18 4 7
4 10 -1 6 -4 -4 -14 -3 -21 3 -8 7 -14 6 -20 -2 -5 -8 -3 -9 6 -4 8 5 11 4 7
-1 -6 -11 -91 -11 -125 0 -17 6 -30 2 -44 -11 -21 -18 -21 -18 -9 5 8 14 8 22
1 22 -5 0 -10 -5 -10 -12 0 -9 -3 -9 -12 0 -7 7 -17 8 -29 2 -12 -7 -20 -6
-24 0 -4 6 -11 7 -17 4 -17 -11 -68 -13 -62 -3 3 5 0 9 -5 9 -6 0 -11 -8 -11
-17z m368 -28 c-3 -3 -9 2 -12 12 -6 14 -5 15 5 6 7 -7 10 -15 7 -18z"/>
<path d="M346 1651 c-3 -4 4 -7 14 -6 27 2 33 10 10 12 -11 1 -22 -2 -24 -6z"/>
<path d="M3563 1644 c0 -7 5 -10 10 -7 6 3 7 1 3 -5 -4 -6 -14 -8 -23 -5 -11
4 -14 3 -9 -5 5 -8 1 -10 -10 -5 -13 5 -15 3 -9 -8 8 -12 6 -12 -8 0 -9 7 -17
12 -18 10 -6 -31 -6 -38 0 -35 4 3 7 -5 8 -17 0 -12 -1 -16 -4 -9 -8 20 -22
14 -16 -8 3 -11 9 -17 14 -14 5 3 9 1 9 -5 0 -5 -4 -13 -10 -16 -13 -8 -13
-25 1 -25 5 0 7 5 4 10 -3 6 1 10 10 10 10 0 13 -5 9 -12 -5 -8 -2 -9 11 -4
15 5 16 4 5 -9 -11 -13 -11 -16 1 -13 8 2 17 8 21 13 5 6 8 6 8 -2 0 -7 10
-10 26 -7 19 3 24 1 18 -8 -6 -10 -4 -10 7 -3 8 6 44 10 82 10 42 -1 67 2 67
9 0 6 4 5 9 -2 6 -9 20 -12 45 -8 28 5 35 3 30 -6 -5 -9 -3 -9 9 1 9 7 17 10
17 6 0 -4 8 -1 17 6 11 9 14 10 9 2 -5 -9 0 -12 19 -11 15 2 24 7 21 14 -3 7
3 10 15 7 10 -3 19 -10 20 -17 0 -6 4 -2 9 9 12 27 12 43 0 25 -6 -9 -10 -10
-10 -3 0 6 5 15 10 18 14 9 12 58 -2 74 -11 11 -10 12 2 6 12 -7 13 -6 3 7 -7
8 -10 18 -6 22 4 4 0 4 -9 1 -10 -4 -15 -13 -11 -23 4 -13 3 -14 -5 -4 -5 8
-12 13 -16 13 -16 -1 -36 13 -36 25 0 11 -4 12 -19 4 -13 -6 -22 -7 -26 0 -3
5 -15 6 -29 0 -13 -4 -29 -4 -37 0 -8 6 -22 4 -34 -4 -23 -15 -80 -12 -101 5
-11 9 -15 7 -20 -6 -5 -12 -9 -13 -14 -4 -11 17 -67 19 -67 3z m47 2 c0 -3 -4
-8 -10 -11 -5 -3 -10 -1 -10 4 0 6 5 11 10 11 6 0 10 -2 10 -4z m180 -6 c0 -5
-5 -10 -11 -10 -5 0 -7 5 -4 10 3 6 8 10 11 10 2 0 4 -4 4 -10z"/>
<path d="M3706 1651 c-3 -4 4 -7 14 -6 27 2 33 10 10 12 -11 1 -22 -2 -24 -6z"/>
<path d="M3930 1641 c0 -6 4 -13 10 -16 6 -3 7 1 4 9 -7 18 -14 21 -14 7z"/>
<path d="M610 1580 c0 -5 5 -10 11 -10 5 0 7 5 4 10 -3 6 -8 10 -11 10 -2 0
-4 -4 -4 -10z"/>
<path d="M610 1500 c0 -5 5 -10 11 -10 5 0 7 5 4 10 -3 6 -8 10 -11 10 -2 0
-4 -4 -4 -10z"/>
<path d="M180 1219 c0 -5 -5 -7 -12 -3 -7 4 -8 3 -4 -4 4 -7 2 -12 -3 -12 -6
0 -11 4 -11 9 0 5 -11 8 -25 7 -14 0 -25 -6 -25 -12 0 -6 -7 -11 -15 -11 -11
0 -12 4 -4 14 19 22 4 15 -27 -13 -16 -15 -23 -23 -15 -19 10 6 12 4 7 -4 -6
-9 -11 -9 -21 -1 -20 16 -26 -2 -24 -64 2 -40 7 -56 22 -65 10 -7 16 -8 13 -2
-4 5 2 9 14 8 11 -1 20 -4 20 -7 0 -11 34 -8 49 4 11 8 13 8 7 -1 -4 -8 -2
-13 4 -13 6 0 8 -6 5 -12 -4 -7 0 -5 8 4 12 16 15 16 29 2 12 -12 17 -13 23
-3 6 8 4 10 -5 4 -9 -6 -11 -4 -5 5 6 9 4 11 -5 5 -9 -5 -11 -4 -6 4 4 6 13 8
19 4 16 -10 107 -11 113 -1 3 5 11 5 17 1 17 -11 57 -11 63 -2 3 5 16 2 29 -7
18 -11 25 -12 31 -3 5 8 3 9 -6 4 -9 -5 -11 -4 -6 3 5 9 13 9 26 2 13 -7 21
-7 26 2 4 7 3 8 -4 4 -7 -4 -12 -2 -12 5 0 6 8 9 19 6 14 -3 18 -1 14 9 -3 8
-10 11 -16 7 -6 -4 -7 -1 -1 8 13 21 13 62 0 79 -9 13 -9 13 6 2 12 -10 18
-10 24 -1 4 7 3 9 -4 5 -6 -3 -14 -1 -17 5 -4 5 -14 8 -22 5 -8 -3 -11 -1 -8
4 3 6 -1 10 -10 10 -9 0 -13 5 -10 10 3 6 3 10 -2 11 -4 0 -16 2 -26 4 -9 2
-15 -1 -11 -6 3 -5 1 -9 -5 -9 -5 0 -15 8 -20 18 -10 16 -10 16 -11 0 0 -9 -5
-20 -12 -24 -7 -4 -8 -3 -4 4 5 8 0 12 -13 12 -10 0 -27 3 -35 6 -12 5 -15 2
-10 -12 6 -17 5 -17 -9 1 -11 13 -16 15 -17 6 0 -10 -3 -11 -13 -2 -10 8 -17
7 -25 -1 -7 -7 -12 -8 -12 -4 0 5 -6 3 -14 -3 -11 -9 -16 -9 -22 0 -4 8 -3 9
4 5 8 -5 10 -2 6 8 -7 18 -14 21 -14 5z m-150 -164 c0 -5 -5 -3 -10 5 -5 8
-10 20 -10 25 0 6 5 3 10 -5 5 -8 10 -19 10 -25z"/>
<path d="M3660 1219 c0 -7 -10 -9 -26 -5 -15 4 -23 3 -20 -3 4 -5 -3 -7 -16
-3 -16 4 -19 2 -13 -9 6 -11 5 -12 -6 -1 -16 15 -29 16 -29 1 0 -5 5 -7 12 -3
7 4 8 3 4 -5 -4 -6 -12 -9 -17 -6 -5 4 -9 1 -9 -4 0 -6 -9 -11 -20 -11 -11 0
-20 -5 -20 -11 0 -5 5 -7 12 -3 7 4 8 3 4 -5 -5 -8 -12 -9 -20 -2 -8 7 -12 5
-12 -8 0 -13 5 -17 16 -13 8 3 12 2 8 -3 -4 -4 -3 -17 3 -28 8 -14 8 -18 0
-13 -16 10 -13 -7 5 -30 8 -10 13 -13 9 -7 -4 9 -1 11 9 7 9 -3 13 -11 9 -18
-4 -6 2 -4 12 4 14 11 17 11 11 1 -7 -10 -3 -12 14 -6 13 4 20 3 17 -2 -4 -6
6 -9 21 -7 15 1 27 3 27 4 0 1 20 3 45 4 25 1 50 5 56 8 6 4 14 4 18 0 11 -10
30 -9 39 3 5 6 7 4 4 -5 -2 -8 -10 -14 -17 -12 -11 3 -11 0 0 -12 7 -9 15 -16
18 -16 3 0 2 3 -1 7 -10 9 13 34 25 27 5 -3 15 -1 23 6 8 7 15 7 19 1 4 -6 14
-8 24 -5 13 5 14 4 3 -4 -8 -6 -9 -12 -3 -16 5 -3 12 1 16 9 3 9 12 12 22 8
13 -5 15 -3 9 8 -7 12 -6 12 7 1 13 -10 17 -10 22 4 3 9 4 20 1 24 -3 5 0 12
6 16 7 4 9 3 6 -2 -3 -6 -2 -16 4 -24 6 -10 9 4 9 42 0 32 -3 57 -7 56 -17 -3
-43 15 -43 29 0 13 -3 13 -15 3 -13 -11 -14 -10 -9 5 5 12 4 16 -4 11 -6 -3
-15 2 -21 11 -9 16 -10 16 -11 1 0 -9 -5 -20 -12 -24 -7 -4 -8 -3 -4 4 5 8 0
12 -13 12 -10 0 -27 3 -35 6 -12 5 -15 2 -10 -12 6 -17 5 -17 -9 1 -11 13 -16
15 -17 6 0 -10 -3 -11 -13 -2 -10 8 -17 7 -25 -1 -7 -7 -12 -8 -12 -4 0 5 -6
3 -14 -3 -11 -9 -16 -9 -22 0 -4 8 -3 9 4 5 8 -5 10 -1 5 10 -4 11 -8 13 -11
6 -2 -7 -9 -9 -14 -6 -7 4 -8 2 -4 -4 4 -7 1 -12 -8 -12 -10 0 -13 6 -10 15 4
8 3 15 0 15 -3 0 -6 -5 -6 -11z m-26 -177 c3 -5 -1 -9 -9 -9 -8 0 -12 4 -9 9
3 4 7 8 9 8 2 0 6 -4 9 -8z"/>
<path d="M3515 1190 c-3 -5 -1 -10 4 -10 6 0 11 5 11 10 0 6 -2 10 -4 10 -3 0
-8 -4 -11 -10z"/>
<path d="M3967 1179 c7 -7 15 -10 18 -7 3 3 -2 9 -12 12 -14 6 -15 5 -6 -5z"/>
<path d="M509 1138 c-11 -34 1 -82 15 -59 4 5 2 13 -4 16 -8 5 -8 11 0 20 8 9
8 15 0 20 -5 3 -10 5 -11 3z"/>
<path d="M3476 1102 c-3 -5 1 -9 9 -9 8 0 15 4 15 9 0 4 -4 8 -9 8 -6 0 -12
-4 -15 -8z"/>
<path d="M302 1027 c-8 -10 -6 -13 11 -14 12 0 16 1 9 4 -6 3 -10 9 -6 14 8
14 -2 11 -14 -4z"/>
<path d="M379 1023 c-7 -10 -9 -15 -5 -11 5 4 16 2 25 -5 14 -10 14 -10 4 4
-7 9 -10 19 -6 22 3 4 4 7 1 7 -3 0 -12 -8 -19 -17z"/>
<path d="M3742 1027 c-8 -10 -6 -13 11 -14 12 0 16 1 9 4 -6 3 -10 9 -6 14 8
14 -2 11 -14 -4z"/>
<path d="M3856 1031 c-4 -5 -2 -12 3 -15 5 -4 12 -2 15 3 4 5 2 12 -3 15 -5 4
-12 2 -15 -3z"/>
<path d="M3376 1018 c3 -4 11 -5 19 -1 21 7 19 12 -4 10 -11 0 -18 -5 -15 -9z"/>
<path d="M614 825 c0 -19 3 -22 13 -13 10 8 10 14 2 24 -15 18 -15 18 -15 -11z"/>
<path d="M1579 618 c-10 -20 -10 -21 2 -12 14 12 31 11 60 -1 20 -8 35 10 18
21 -8 4 -9 3 -5 -4 10 -16 -5 -14 -28 3 -26 20 -33 19 -47 -7z"/>
<path d="M1373 609 c-2 -23 3 -25 10 -4 4 8 3 16 -1 19 -4 3 -9 -4 -9 -15z"/>
<path d="M2173 609 c-2 -23 3 -25 10 -4 4 8 3 16 -1 19 -4 3 -9 -4 -9 -15z"/>
<path d="M2493 609 c-2 -23 3 -25 10 -4 4 8 3 16 -1 19 -4 3 -9 -4 -9 -15z"/>
<path d="M2813 609 c-2 -23 3 -25 10 -4 4 8 3 16 -1 19 -4 3 -9 -4 -9 -15z"/>
<path d="M3133 609 c-2 -23 3 -25 10 -4 4 8 3 16 -1 19 -4 3 -9 -4 -9 -15z"/>
<path d="M1110 521 c0 -5 -11 -8 -24 -7 -17 2 -23 -1 -19 -11 3 -8 10 -10 17
-5 6 5 21 8 33 7 18 -1 20 1 12 12 -13 15 -19 17 -19 4z"/>
<path d="M1541 514 c0 -11 3 -14 6 -6 3 7 2 16 -1 19 -3 4 -6 -2 -5 -13z"/>
<path d="M2460 522 c0 -7 -9 -12 -21 -12 -11 0 -17 -4 -14 -10 3 -6 -1 -7 -9
-4 -9 3 -13 11 -9 17 3 6 1 7 -5 3 -7 -4 -12 -14 -12 -22 0 -9 5 -12 12 -8 7
5 8 3 4 -5 -5 -7 -14 -10 -22 -7 -10 4 -14 -3 -14 -24 0 -16 -4 -32 -10 -35
-6 -4 -7 1 -4 12 5 15 4 15 -4 3 -8 -10 -8 -18 0 -27 7 -9 7 -13 -1 -13 -6 0
-11 -5 -11 -10 0 -7 8 -7 23 1 22 12 22 12 3 -9 -10 -12 -16 -28 -13 -36 4 -9
2 -18 -4 -22 -7 -4 -7 -10 0 -18 6 -7 6 -17 1 -26 -5 -9 -5 -19 2 -27 7 -9 7
-13 -1 -13 -6 0 -11 -5 -11 -10 0 -7 8 -7 23 1 22 12 22 12 3 -9 -15 -18 -16
-26 -8 -51 8 -22 8 -32 0 -37 -7 -5 -8 -2 -3 6 5 8 4 11 -3 6 -6 -4 -9 -13 -6
-21 4 -8 11 -12 17 -8 5 3 7 1 3 -5 -3 -5 0 -13 6 -15 10 -4 10 -6 1 -6 -7 -1
-10 -8 -7 -16 4 -8 1 -15 -5 -15 -6 0 -11 -5 -11 -11 0 -8 6 -7 17 2 15 12 16
12 10 -5 -5 -14 -3 -17 8 -13 8 4 17 1 21 -5 4 -6 3 -8 -4 -4 -6 3 -13 2 -16
-2 -3 -5 22 -10 55 -11 41 -1 59 1 54 9 -3 6 -11 7 -17 4 -7 -4 -8 -2 -4 4 4
6 14 8 23 5 12 -5 14 -3 8 8 -8 12 -6 12 8 1 14 -12 16 -11 12 7 -2 12 -7 26
-11 33 -4 6 -3 8 3 5 6 -4 9 19 8 61 0 37 4 73 10 81 7 11 7 13 -2 7 -9 -5
-11 3 -7 34 4 29 2 40 -8 40 -8 0 -9 3 -3 8 15 11 17 114 2 105 -7 -4 -6 0 2
10 9 12 10 17 2 17 -7 0 -9 5 -6 10 4 6 12 8 18 4 7 -3 4 1 -5 9 -10 8 -14 18
-10 22 4 5 1 5 -6 1 -7 -4 -10 -11 -7 -16 3 -5 0 -12 -6 -16 -7 -4 -9 -3 -5 4
3 6 2 13 -3 17 -6 3 -7 13 -4 23 5 14 3 14 -17 -3 l-23 -20 12 23 c7 13 10 26
7 30 -3 3 -6 0 -6 -6z"/>
<path d="M2878 523 c6 -2 9 -10 6 -15 -4 -7 -2 -8 5 -4 13 9 5 26 -12 25 -9 0
-8 -2 1 -6z"/>
<path d="M1503 510 c2 -8 10 -14 16 -12 7 1 10 -2 6 -8 -3 -6 -11 -7 -17 -4
-8 5 -9 1 -4 -11 6 -16 4 -16 -11 -4 -15 13 -16 12 -11 -9 4 -12 3 -20 -2 -17
-4 3 -7 -19 -6 -49 2 -43 -1 -53 -12 -48 -12 4 -12 1 1 -19 18 -28 19 -29 7
-68 -7 -24 -5 -31 8 -34 15 -4 14 -5 -1 -6 -11 -1 -15 -5 -11 -13 4 -7 8 -22
9 -35 0 -17 -3 -22 -15 -18 -12 5 -12 3 2 -11 16 -16 16 -18 0 -31 -9 -8 -11
-12 -4 -8 12 6 16 -6 13 -34 -2 -8 2 -10 11 -5 9 5 8 2 -2 -11 -12 -15 -12
-17 -1 -10 11 6 13 2 9 -17 -3 -17 0 -25 9 -25 8 0 12 7 8 16 -4 12 -2 12 9
-2 10 -13 26 -17 64 -16 39 2 47 5 38 14 -8 10 -13 10 -18 1 -5 -7 -8 -7 -8 0
0 19 12 24 31 13 15 -7 19 -7 17 3 -2 7 2 12 9 11 7 -2 10 4 6 12 -5 13 -7 13
-20 -2 -8 -11 -11 -12 -7 -3 4 8 14 23 22 33 15 16 14 17 -4 12 -18 -6 -18 -6
-1 8 14 11 15 16 5 20 -10 4 -10 6 1 6 11 1 11 4 0 18 -8 9 -9 14 -4 11 11 -7
12 73 1 91 -4 5 2 15 11 21 15 10 15 11 1 6 -14 -4 -15 0 -8 25 7 22 5 31 -8
39 -15 8 -15 9 3 10 17 0 17 2 5 10 -13 9 -13 10 0 10 13 0 13 1 0 10 -8 5
-10 10 -3 10 6 0 9 9 6 20 -3 11 -8 18 -12 15 -10 -5 -7 27 2 43 6 8 3 10 -7
6 -8 -3 -21 -2 -28 2 -7 5 -16 9 -20 9 -3 0 -10 4 -15 9 -5 5 -2 6 7 1 12 -6
13 -5 3 6 -10 10 -16 10 -25 1 -8 -8 -15 -9 -25 -1 -7 7 -13 8 -13 3 0 -5 -5
-2 -11 6 -9 13 -10 13 -6 0z"/>
<path d="M1986 506 c3 -7 -2 -13 -10 -13 -8 0 -13 4 -10 9 3 4 1 8 -4 8 -5 0
-12 -13 -15 -30 -4 -19 -13 -30 -23 -30 -10 0 -15 -3 -11 -6 3 -3 2 -17 -4
-31 -5 -15 -5 -22 0 -18 5 3 12 1 16 -5 3 -5 2 -10 -3 -10 -5 0 -12 -11 -14
-25 -3 -13 -1 -22 3 -19 11 6 11 6 0 -34 -6 -18 -6 -30 -1 -27 8 5 7 -23 -1
-72 -1 -4 0 -12 1 -18 6 -25 4 -41 -5 -47 -7 -5 -6 -8 1 -8 5 0 9 -14 8 -30
-1 -17 3 -30 9 -30 7 0 5 -5 -3 -10 -12 -8 -12 -10 -1 -10 10 0 11 -3 2 -13
-15 -19 -1 -30 17 -14 13 10 15 9 10 -4 -5 -13 3 -16 43 -17 36 -1 48 2 42 11
-4 7 0 6 10 -2 13 -10 20 -11 30 -2 8 6 17 9 21 6 3 -3 2 1 -4 7 -14 16 -13
31 2 22 7 -5 8 -3 3 6 -11 18 -13 60 -3 60 4 0 8 5 8 11 0 5 -3 8 -7 6 -5 -3
-8 6 -8 19 0 13 3 24 8 24 4 0 7 5 7 11 0 5 -3 8 -7 6 -5 -3 -8 6 -8 19 0 13
3 24 7 24 4 0 3 14 -2 30 -5 19 -5 30 1 30 6 0 5 8 -1 20 -7 14 -7 20 0 20 5
0 10 5 10 11 0 5 -3 8 -7 6 -5 -3 -8 6 -8 19 0 13 2 24 5 24 3 0 6 9 6 19 0
11 -3 18 -7 15 -4 -2 -10 3 -13 12 -3 8 -2 12 4 9 6 -3 10 1 10 10 0 10 -5 13
-11 9 -9 -5 -10 2 -6 22 3 16 4 23 1 16 -5 -10 -11 -9 -27 5 -15 12 -18 13 -9
2 6 -9 9 -19 5 -22 -3 -4 -11 1 -18 10 -14 20 -46 27 -39 9z m88 -487 c-3 -5
-10 -7 -15 -3 -5 3 -7 10 -3 15 3 5 10 7 15 3 5 -3 7 -10 3 -15z"/>
<path d="M2854 513 c7 -12 -5 -18 -27 -14 -4 1 -3 -8 3 -20 11 -19 10 -20 -12
-8 -22 12 -22 11 -8 -6 13 -17 13 -18 -1 -13 -9 4 -16 1 -16 -8 0 -7 5 -11 11
-8 6 3 4 0 -5 -8 -11 -9 -13 -22 -8 -45 5 -27 3 -33 -10 -33 -12 0 -13 -2 -3
-9 7 -4 12 -14 10 -22 -2 -8 4 -13 12 -11 12 2 11 -1 -2 -11 -14 -11 -15 -16
-5 -27 9 -10 9 -11 -1 -6 -12 7 -11 -15 4 -62 2 -6 -4 -12 -14 -12 -10 0 -13
-3 -6 -8 14 -9 15 -82 1 -82 -6 0 -2 -6 8 -14 11 -8 24 -13 30 -12 5 2 7 1 2
-1 -4 -3 -4 -9 -1 -15 4 -5 -4 -4 -17 2 l-24 13 20 -20 c11 -11 23 -19 28 -16
4 2 7 -2 7 -10 0 -18 21 -27 66 -27 26 0 33 3 28 13 -5 7 0 6 11 -3 11 -9 16
-10 11 -2 -4 7 -1 12 9 12 9 0 13 5 10 10 -4 6 -12 8 -18 4 -7 -3 -4 1 6 9 12
10 14 17 8 22 -14 8 -14 25 0 25 5 0 7 -5 3 -12 -4 -6 -3 -8 4 -5 8 6 10 42 2
42 -8 0 -4 97 3 102 6 4 7 1 2 -7 -5 -9 -4 -11 3 -6 15 9 15 11 -5 27 -14 12
-16 12 -8 0 6 -10 4 -12 -5 -6 -10 6 -7 13 11 27 13 11 18 17 12 13 -7 -3 -13
-1 -13 5 0 6 -6 8 -12 5 -7 -4 -3 2 9 13 19 17 20 21 7 26 -10 4 -13 2 -8 -6
4 -7 3 -8 -5 -4 -6 4 -8 13 -4 19 11 18 11 50 -1 66 -8 11 -8 13 0 8 7 -4 12
2 12 18 0 14 -4 22 -9 20 -4 -3 -10 -1 -13 4 -4 5 -1 13 5 17 8 5 9 3 4 -7 -5
-8 -4 -10 0 -6 14 13 14 36 0 31 -7 -3 -16 0 -20 5 -3 6 -11 9 -16 6 -5 -3 -6
2 -2 11 5 14 3 15 -13 6 -15 -8 -23 -7 -38 6 -11 9 -16 11 -12 5z"/>
<path d="M1146 501 c-3 -4 -17 -7 -31 -6 -14 2 -28 -1 -31 -6 -4 -6 -11 -6
-19 1 -11 9 -12 7 -8 -9 4 -16 1 -21 -13 -21 -16 0 -17 -2 -4 -10 12 -7 12
-10 1 -10 -9 0 -11 -8 -7 -26 5 -19 4 -24 -6 -18 -7 5 -5 -5 6 -20 10 -16 14
-26 8 -22 -5 3 -12 -1 -16 -9 -3 -10 1 -15 12 -16 11 0 12 -2 4 -6 -10 -4 -10
-8 0 -21 8 -10 9 -13 1 -9 -15 9 -23 -13 -11 -35 6 -13 5 -18 -4 -19 -7 0 -4
-4 7 -9 11 -5 14 -9 8 -9 -8 -1 -12 -15 -11 -41 1 -24 5 -37 12 -34 6 3 3 -1
-7 -9 -16 -14 -16 -16 -2 -31 9 -9 12 -16 7 -16 -5 0 -9 -7 -9 -15 0 -10 6
-14 16 -10 12 4 12 2 -2 -9 -15 -12 -16 -14 -2 -20 8 -3 15 -10 15 -16 0 -6
-5 -8 -12 -4 -6 4 -8 3 -5 -3 11 -17 108 -12 129 6 10 8 18 20 18 26 0 5 -5 3
-10 -5 -5 -8 -10 -10 -10 -4 0 5 7 19 16 30 8 10 12 13 8 5 -4 -9 -3 -12 4 -7
6 4 9 13 6 21 -4 8 -10 12 -15 9 -5 -3 -9 0 -9 5 0 14 13 14 26 1 6 -6 9 2 9
20 1 16 -3 26 -7 24 -5 -3 -6 -10 -3 -15 4 -5 -2 -6 -11 -2 -11 4 -13 8 -6 11
7 2 12 13 12 23 0 11 5 17 10 14 6 -3 10 -1 10 4 0 6 -5 11 -11 11 -5 0 -7 5
-3 12 4 7 3 8 -5 4 -6 -4 -9 -11 -6 -16 3 -5 1 -11 -4 -15 -15 -9 -4 37 11 47
10 6 8 12 -7 24 -20 16 -20 16 3 11 12 -3 22 -1 22 4 0 8 -15 13 -32 10 -5 0
-8 4 -8 9 0 6 10 10 23 10 l22 1 -21 12 c-18 10 -19 14 -9 24 7 6 16 9 19 6 3
-4 6 -2 6 4 0 6 -7 14 -16 17 -8 3 -12 2 -9 -3 3 -5 1 -12 -4 -15 -5 -4 -8 2
-6 11 2 10 4 21 4 25 1 4 7 6 14 4 6 -1 9 -1 5 1 -5 3 -8 9 -8 14 0 6 6 7 13
3 9 -5 9 -4 0 6 -10 11 -10 17 0 29 11 14 10 14 -5 2 -10 -7 -16 -17 -13 -21
3 -5 1 -11 -4 -15 -6 -3 -8 6 -5 22 3 16 9 29 14 31 11 4 -26 42 -41 42 -5 0
-7 5 -4 10 3 6 4 10 1 10 -3 0 -7 -4 -10 -9z"/>
<path d="M1605 501 c-6 -11 13 -26 22 -17 4 3 0 6 -8 6 -11 0 -11 2 1 10 9 6
10 10 3 10 -6 0 -14 -4 -18 -9z"/>
<path d="M2936 488 c3 -5 10 -6 15 -3 13 9 11 12 -6 12 -8 0 -12 -4 -9 -9z"/>
<path d="M1920 475 c-8 -9 -8 -15 -2 -15 12 0 26 19 19 26 -2 2 -10 -2 -17
-11z"/>
<path d="M1447 379 c7 -7 15 -10 18 -7 3 3 -2 9 -12 12 -14 6 -15 5 -6 -5z"/>
<path d="M2973 375 c0 -8 4 -12 9 -9 5 3 6 10 3 15 -9 13 -12 11 -12 -6z"/>
<path d="M1455 301 c-3 -5 -2 -12 3 -15 5 -3 9 1 9 9 0 17 -3 19 -12 6z"/>
</g>
</svg>
